<svg id="Capa_1" data-name="Capa 1" xmlns="http://www.w3.org/2000/svg" viewBox="0 0 1000 600"><defs><style>.cls-1{fill:#dcd7b1;}.cls-2{fill:none;stroke:#595759;stroke-linecap:round;stroke-linejoin:round;stroke-width:4.56px;}.cls-3{fill:#4e5384;}.cls-4{fill:#f90d0d;}.cls-5{fill:#ddd700;}.cls-6{fill:#57824e;}.cls-7{font-size:22.02px;font-family:IBMPlexSans-Bold, IBM Plex Sans;}.cls-7,.cls-8{fill:#595759;}.cls-15,.cls-23,.cls-24,.cls-25,.cls-31,.cls-32,.cls-34,.cls-35,.cls-7{font-weight:700;}.cls-8{font-size:14.01px;}.cls-33,.cls-8{font-family:IBMPlexSans, IBM Plex Sans;}.cls-31,.cls-9{letter-spacing:-0.01em;}.cls-10{letter-spacing:0em;}.cls-11{letter-spacing:-0.01em;}.cls-12{letter-spacing:0.01em;}.cls-13{letter-spacing:-0.01em;}.cls-14,.cls-24{letter-spacing:-0.01em;}.cls-15,.cls-23,.cls-24,.cls-25,.cls-31,.cls-32,.cls-34,.cls-35{font-family:IBMPlexSans-BoldItalic, IBM Plex Sans;font-style:italic;}.cls-16,.cls-34{letter-spacing:-0.04em;}.cls-17{letter-spacing:0em;}.cls-18,.cls-32{letter-spacing:0.02em;}.cls-19,.cls-25{letter-spacing:-0.01em;}.cls-20{letter-spacing:-0.03em;}.cls-21{letter-spacing:0.01em;}.cls-22{letter-spacing:-0.01em;}.cls-23{letter-spacing:-0.03em;}.cls-26{letter-spacing:-0.01em;}.cls-27{letter-spacing:0.02em;}.cls-28{letter-spacing:-0.01em;}.cls-29,.cls-35{letter-spacing:0em;}.cls-30{letter-spacing:0em;}.cls-33{font-weight:400;font-style:normal;}.cls-36{letter-spacing:-0.01em;}.cls-37{fill:#595659;}.cls-38{fill:#2d5fd2;}.cls-39{fill:#969696;}.cls-40,.cls-50,.cls-56,.cls-58{font-size:9.04px;}.cls-40,.cls-50,.cls-56,.cls-58,.cls-60{fill:#606060;font-family:Roboto-Medium, Roboto Medium;font-weight:500;}.cls-41{letter-spacing:0em;}.cls-42{letter-spacing:0em;}.cls-43{letter-spacing:-0.03em;}.cls-44{letter-spacing:0em;}.cls-45{letter-spacing:-0.01em;}.cls-46{letter-spacing:-0.06em;}.cls-47{letter-spacing:-0.01em;}.cls-48{letter-spacing:0em;}.cls-49{letter-spacing:-0.01em;}.cls-50{letter-spacing:-0.01em;}.cls-51{letter-spacing:0em;}.cls-52{letter-spacing:-0.01em;}.cls-53{letter-spacing:-0.03em;}.cls-54{letter-spacing:0em;}.cls-55{letter-spacing:0.01em;}.cls-56{letter-spacing:0.01em;}.cls-57{letter-spacing:-0.01em;}.cls-58{letter-spacing:-0.02em;}.cls-59{fill:#ed5044;}.cls-60{font-size:8.67px;}.cls-61{letter-spacing:0em;}.cls-62{letter-spacing:-0.01em;}.cls-63{letter-spacing:0.01em;}.cls-64{letter-spacing:-0.01em;}</style></defs><rect class="cls-1" width="1000" height="600"/><polyline class="cls-2" points="896.42 132 339.39 132 339.39 315.36 900.92 315.36 900.92 495.49 434.98 495.49"/><circle class="cls-3" cx="898.34" cy="132.71" r="9.51"/><circle class="cls-3" cx="764.21" cy="132.71" r="9.51"/><circle class="cls-4" cx="427.89" cy="132.71" r="9.51"/><circle class="cls-4" cx="339.8" cy="239.81" r="9.51"/><circle class="cls-4" cx="472.89" cy="313.21" r="9.51"/><circle class="cls-4" cx="434.98" cy="497.42" r="9.51"/><circle class="cls-4" cx="681.13" cy="317.05" r="9.51"/><circle class="cls-5" cx="900.42" cy="436.36" r="9.51"/><circle class="cls-4" cx="583.12" cy="498.42" r="9.51"/><circle class="cls-4" cx="765.29" cy="498.42" r="9.51"/><circle class="cls-6" cx="808.25" cy="314.17" r="9.51"/><circle class="cls-4" cx="589.04" cy="131.71" r="9.51"/><text class="cls-7" transform="translate(871.82 117.51)">1850</text><text class="cls-7" transform="translate(737.69 164.55)">1851</text><text class="cls-7" transform="translate(562.52 116.51)">1889</text><text class="cls-7" transform="translate(401.36 163.55)">1901 </text><text class="cls-7" transform="translate(357.32 251.63)">1902 </text><text class="cls-7" transform="translate(446.37 344.05)">1916</text><text class="cls-7" transform="translate(654.61 299.01)">1942</text><text class="cls-7" transform="translate(781.73 346.05)">1950</text><text class="cls-7" transform="translate(917.94 443.18)">1981</text><text class="cls-7" transform="translate(738.77 481.22)">1985 </text><text class="cls-7" transform="translate(555.6 533.27)">1990 </text><text class="cls-7" transform="translate(408.46 481.22)">1998 </text><text class="cls-8" transform="translate(841.87 162.9)"><tspan class="cls-9">P</tspan><tspan x="8.35" y="0">rime</tspan><tspan class="cls-10" x="36.92" y="0">r</tspan><tspan x="42.01" y="0">a fábrica de </tspan><tspan class="cls-11" x="-3.07" y="16.82">c</tspan><tspan x="3.9" y="16.82">e</tspan><tspan class="cls-12" x="11.59" y="16.82">r</tspan><tspan class="cls-13" x="16.87" y="16.82">v</tspan><tspan class="cls-14" x="23.65" y="16.82">e</tspan><tspan x="31.28" y="16.82">za de Chile en </tspan><tspan class="cls-15"><tspan class="cls-16" x="31.57" y="33.63">V</tspan><tspan x="39.85" y="33.63">aldivia</tspan></tspan></text><text class="cls-8" transform="translate(803.81 421.22)">Inau<tspan class="cls-17" x="29.01" y="0">g</tspan><tspan x="36.35" y="0">u</tspan><tspan class="cls-10" x="44.31" y="0">r</tspan><tspan x="49.4" y="0">ación </tspan><tspan class="cls-15"><tspan class="cls-9" x="9.72" y="16.82">C</tspan><tspan x="18.48" y="16.82">e</tspan><tspan class="cls-18" x="25.69" y="16.82">r</tspan><tspan class="cls-9" x="31.49" y="16.82">v</tspan><tspan x="38.53" y="16.82">e</tspan><tspan class="cls-19" x="45.75" y="16.82">c</tspan><tspan x="52.57" y="16.82">e</tspan><tspan class="cls-14" x="59.79" y="16.82">r</tspan><tspan x="65.24" y="16.82">a </tspan><tspan x="13.19" y="33.63">Santi</tspan><tspan class="cls-14" x="46.82" y="33.63">ag</tspan><tspan x="62.46" y="33.63">o</tspan></tspan></text><text class="cls-8" transform="translate(521.63 159.93)"><tspan class="cls-20">F</tspan><tspan x="7.48" y="0">usión de </tspan><tspan class="cls-11" x="64.01" y="0">c</tspan><tspan x="70.98" y="0">e</tspan><tspan class="cls-21" x="78.67" y="0">r</tspan><tspan class="cls-22" x="83.95" y="0">v</tspan><tspan x="90.74" y="0">e</tspan><tspan class="cls-11" x="98.43" y="0">c</tspan><tspan x="105.39" y="0">erías </tspan><tspan x="7.62" y="16.82">da ori</tspan><tspan class="cls-11" x="43.03" y="16.82">g</tspan><tspan x="50.34" y="16.82">en a </tspan><tspan class="cls-23" x="80.09" y="16.82">F</tspan><tspan class="cls-24" x="87.48" y="16.82">á</tspan><tspan class="cls-15" x="95.69" y="16.82">bri</tspan><tspan class="cls-25" x="113.32" y="16.82">c</tspan><tspan class="cls-15" x="120.14" y="16.82">a </tspan><tspan class="cls-15"><tspan x="2.96" y="33.63">Nacional de </tspan><tspan class="cls-9" x="82.08" y="33.63">C</tspan><tspan x="90.84" y="33.63">e</tspan><tspan class="cls-18" x="98.06" y="33.63">r</tspan><tspan class="cls-9" x="103.86" y="33.63">v</tspan><tspan class="cls-14" x="110.89" y="33.63">e</tspan><tspan class="cls-9" x="118.04" y="33.63">z</tspan><tspan x="124.8" y="33.63">a</tspan></tspan></text><text class="cls-8" transform="translate(392.24 527.61)"><tspan class="cls-26">C</tspan><tspan x="8.52" y="0">CU adquie</tspan><tspan class="cls-14" x="72.93" y="0">r</tspan><tspan x="78" y="0">e </tspan><tspan class="cls-15"><tspan class="cls-19" x="-22.29" y="16.82">c</tspan><tspan x="-15.47" y="16.82">e</tspan><tspan class="cls-27" x="-8.25" y="16.82">r</tspan><tspan class="cls-28" x="-2.45" y="16.82">v</tspan><tspan x="4.58" y="16.82">e</tspan><tspan class="cls-19" x="11.8" y="16.82">c</tspan><tspan x="18.63" y="16.82">erías </tspan><tspan class="cls-28" x="53.85" y="16.82">C</tspan><tspan x="62.61" y="16.82">ó</tspan><tspan class="cls-29" x="70.21" y="16.82">r</tspan><tspan x="75.66" y="16.82">doba</tspan></tspan></text><text class="cls-8" transform="translate(388.52 277.33)"><tspan class="cls-26">C</tspan><tspan x="8.52" y="0">CU pasa a ser el </tspan><tspan class="cls-15" x="111.82" y="0">principal </tspan><tspan class="cls-15"><tspan x="17.61" y="16.82">p</tspan><tspan class="cls-14" x="25.78" y="16.82">r</tspan><tspan x="31.23" y="16.82">oduc</tspan><tspan class="cls-19" x="62.18" y="16.82">t</tspan><tspan x="67.05" y="16.82">or de </tspan><tspan class="cls-19" x="102.28" y="16.82">c</tspan><tspan x="109.1" y="16.82">e</tspan><tspan class="cls-27" x="116.32" y="16.82">r</tspan><tspan class="cls-28" x="122.12" y="16.82">v</tspan><tspan class="cls-29" x="129.15" y="16.82">e</tspan><tspan class="cls-28" x="136.3" y="16.82">z</tspan><tspan x="143.05" y="16.82">a</tspan></tspan></text><text class="cls-8" transform="translate(630.91 345.36)"><tspan class="cls-30">L</tspan><tspan x="7.01" y="0">anzamien</tspan><tspan class="cls-10" x="67.83" y="0">t</tspan><tspan x="72.69" y="0">o de </tspan><tspan class="cls-11" x="-6.3" y="16.82">c</tspan><tspan x="0.67" y="16.82">e</tspan><tspan class="cls-12" x="8.36" y="16.82">r</tspan><tspan class="cls-13" x="13.64" y="16.82">v</tspan><tspan class="cls-14" x="20.42" y="16.82">e</tspan><tspan x="28.05" y="16.82">za </tspan><tspan class="cls-15" x="45.34" y="16.82">Escudo </tspan><tspan x="94.67" y="16.82">al </tspan><tspan x="22.08" y="33.63">me</tspan><tspan class="cls-14" x="42" y="33.63">r</tspan><tspan x="47.08" y="33.63">cado</tspan></text><text class="cls-8" transform="translate(512.17 441.61)">Comienzan a p<tspan class="cls-14" x="92.11" y="0">r</tspan><tspan x="97.18" y="0">oducir y </tspan><tspan x="-11.84" y="16.82">di</tspan><tspan class="cls-19" x="-0.21" y="16.82">s</tspan><tspan x="6.52" y="16.82">tribuir </tspan><tspan class="cls-31" x="48.12" y="16.82">C</tspan><tspan class="cls-15" x="56.88" y="16.82">e</tspan><tspan class="cls-32" x="64.1" y="16.82">r</tspan><tspan class="cls-31" x="69.9" y="16.82">v</tspan><tspan class="cls-24" x="76.93" y="16.82">e</tspan><tspan class="cls-31" x="84.08" y="16.82">z</tspan><tspan class="cls-15" x="90.83" y="16.82">a alemana </tspan><tspan class="cls-15"><tspan class="cls-9" x="17.38" y="33.63">P</tspan><tspan x="26.16" y="33.63">aulaner</tspan><tspan class="cls-33" x="75.8" y="33.63" xml:space="preserve"> en Chile</tspan></tspan></text><text class="cls-8" transform="translate(227.82 215.56)">Con<tspan class="cls-19" x="24.51" y="0">s</tspan><tspan x="31.24" y="0">titución de </tspan><tspan class="cls-15"><tspan class="cls-9" x="16.23" y="16.82">C</tspan><tspan x="24.99" y="16.82">ompañía </tspan><tspan class="cls-9" x="11.62" y="33.63">C</tspan><tspan x="20.38" y="33.63">e</tspan><tspan class="cls-18" x="27.6" y="33.63">r</tspan><tspan class="cls-9" x="33.4" y="33.63">v</tspan><tspan x="40.44" y="33.63">e</tspan><tspan class="cls-19" x="47.65" y="33.63">c</tspan><tspan x="54.48" y="33.63">erías </tspan><tspan x="6.9" y="50.45">unidas (</tspan><tspan class="cls-9" x="59.02" y="50.45">C</tspan><tspan x="67.78" y="50.45">CU)</tspan></tspan></text><text class="cls-8" transform="translate(359.22 60.13)"><tspan class="cls-30">L</tspan><tspan x="7.01" y="0">a fábrica nacional de </tspan><tspan class="cls-11" x="7.38" y="16.82">c</tspan><tspan x="14.34" y="16.82">e</tspan><tspan class="cls-12" x="22.04" y="16.82">r</tspan><tspan class="cls-13" x="27.32" y="16.82">v</tspan><tspan class="cls-14" x="34.1" y="16.82">e</tspan><tspan x="41.72" y="16.82">za adquie</tspan><tspan class="cls-14" x="101.91" y="16.82">r</tspan><tspan x="106.98" y="16.82">e la </tspan><tspan x="6.13" y="33.63">fábrica de </tspan><tspan class="cls-11" x="71.89" y="33.63">c</tspan><tspan x="78.86" y="33.63">e</tspan><tspan class="cls-12" x="86.55" y="33.63">r</tspan><tspan class="cls-13" x="91.83" y="33.63">v</tspan><tspan class="cls-14" x="98.62" y="33.63">e</tspan><tspan x="106.24" y="33.63">za y </tspan><tspan class="cls-15"><tspan x="-3.44" y="50.45">Hielo G</tspan><tspan class="cls-14" x="42.17" y="50.45">u</tspan><tspan x="50.26" y="50.45">bler y </tspan><tspan class="cls-9" x="88.85" y="50.45">C</tspan><tspan x="97.61" y="50.45">ousiño</tspan></tspan></text><text class="cls-8" transform="translate(713.01 77.9)">E<tspan class="cls-19" x="8.17" y="0">s</tspan><tspan x="14.9" y="0">tablecimien</tspan><tspan class="cls-10" x="88.87" y="0">t</tspan><tspan x="93.74" y="0">o </tspan><tspan x="-0.01" y="16.82">de Compañía de </tspan><tspan x="-11.52" y="33.63">Ce</tspan><tspan class="cls-12" x="4.88" y="33.63">r</tspan><tspan class="cls-13" x="10.16" y="33.63">v</tspan><tspan class="cls-14" x="16.94" y="33.63">e</tspan><tspan x="24.57" y="33.63">za de</tspan><tspan class="cls-15" x="57.68" y="33.63"> </tspan><tspan class="cls-34" x="60.99" y="33.63">V</tspan><tspan class="cls-15" x="69.27" y="33.63">aldivia</tspan></text><text class="cls-8" transform="translate(807.85 260.52)"> <tspan x="-61.75" y="16.82">Na</tspan><tspan class="cls-11" x="-44.36" y="16.82">c</tspan><tspan x="-37.39" y="16.82">e en </tspan><tspan class="cls-34" x="-7.43" y="16.82">V</tspan><tspan class="cls-15" x="0.85" y="16.82">alpa</tspan><tspan class="cls-35" x="29.52" y="16.82">r</tspan><tspan class="cls-15" x="34.97" y="16.82">aíso </tspan><tspan class="cls-15"><tspan x="-21.13" y="33.63">Cri</tspan><tspan class="cls-36" x="-2.77" y="33.63">s</tspan><tspan class="cls-14" x="4.02" y="33.63">t</tspan><tspan x="8.91" y="33.63">al</tspan></tspan></text><text class="cls-8" transform="translate(764.89 505.67)"> <tspan class="cls-30" x="-49.83" y="16.82">L</tspan><tspan x="-42.83" y="16.82">anzamien</tspan><tspan class="cls-10" x="17.99" y="16.82">t</tspan><tspan x="22.86" y="16.82">o de </tspan><tspan class="cls-15"><tspan x="-21.13" y="33.63">Cri</tspan><tspan class="cls-36" x="-2.78" y="33.63">s</tspan><tspan class="cls-14" x="4.02" y="33.63">t</tspan><tspan x="8.91" y="33.63">al </tspan></tspan></text><path class="cls-37" d="M177.82,127.89a4.72,4.72,0,0,0-.89-1.35,3.34,3.34,0,0,0-2.72-.9c-.41,0-.81,0-1.21,0a7.47,7.47,0,0,0-1.07.18c-1.08.14-2.22-.11-3.3,0-.44,0-.81.24-1.15-.12a2.61,2.61,0,0,1-.52-1.34c-.19-1.22.2-2.39-.14-3.6-.25-.86-.52-1.71-.71-2.59-.05-.27-.55-.64-.76-.88a1.61,1.61,0,0,0-.34-1.07,3.87,3.87,0,0,1-.32-1,20.45,20.45,0,0,0-1-3.33,15,15,0,0,1-.71-2.31,18.11,18.11,0,0,1,.05-3.29,3.71,3.71,0,0,0-1.16-3.17,9.16,9.16,0,0,1-.86-.68,3.13,3.13,0,0,0-.57-.58c-.31-.2-.77-.18-1.07-.36a.43.43,0,0,1-.15.39.94.94,0,0,0-.12.14,1.46,1.46,0,0,1-.16.19,1.37,1.37,0,0,1-.22.19.63.63,0,0,0-.13.11l-.39.47a.68.68,0,0,1-.32.36.88.88,0,0,1-.27.08l0,0a1.73,1.73,0,0,1-.17.21,5.45,5.45,0,0,1-.47.37l-.35.24c-.36.24-.73.5-1.12.71s-.52.27-.78.39l-.66.32a3.83,3.83,0,0,1-.65.26,3.25,3.25,0,0,0-.4.15,3,3,0,0,0-.4.21,3.71,3.71,0,0,1-.75.35c-.57.18-1.16.35-1.73.49a4.69,4.69,0,0,1-.75.12,3.06,3.06,0,0,0-.89.19,1.64,1.64,0,0,0-.59.54,6,6,0,0,1-1.59,1.59.84.84,0,0,1-.41.12.54.54,0,0,1-.19,0,1.06,1.06,0,0,1-.6-.61l-.06-.1-.1-.17-.2-.12a2,2,0,0,1-.34-.3,1.24,1.24,0,0,0-.27-.22,1.28,1.28,0,0,0-.28-.1,2.09,2.09,0,0,1-.56-.22,1.92,1.92,0,0,1-.35-.35l-.08-.1a1.49,1.49,0,0,0-.77-.45,3.89,3.89,0,0,1-.5-.18,4.57,4.57,0,0,0-2-.49l-.12,0c0,.12,0,.24,0,.38-.07.57,0,1.13-.12,1.71a17.94,17.94,0,0,0-.12,2.32c0,.63.12.47,0,1.06-.22,1-.57,2-.83,3a16.45,16.45,0,0,0-.33,2.2c-.12,1-.27,2.16-.48,3.18-.14.72-.32,1.44-.42,2.16-.16,1.13-.11,2.3-.2,3.43a3.84,3.84,0,0,1-.32,1.52c-.54,1.06-1.21.56-2.07.26-.19.33-.43.37-.65.62a3,3,0,0,0-.46,1.32c-.08.73-.13,1.52-.16,2.27a1.73,1.73,0,0,0,.29,1.19c.25.3.4.11.79.16.6.08.42.61.41,1.12s-.29,1-.34,1.57-.14.83-.16,1.25c-.05.82,0,1.66,0,2.47s-.1,1.54-.16,2.3-.08,1.59-.2,2.37a12.72,12.72,0,0,0-.46,3.4,9.73,9.73,0,0,0,.35,1.62c.25.78.9,1.37,1.11,2.17.49,1.89-.93,4.17-.64,6.06a2.19,2.19,0,0,1-.32,1.31,10.62,10.62,0,0,1-.79,1.49c-.3.38-.47.8-.77,1.18a5.43,5.43,0,0,0-.9,1.15,1.92,1.92,0,0,0,.44,1.89,3.48,3.48,0,0,1,1.2,1.95,2.14,2.14,0,0,1,.59-.08l.27,0a3.88,3.88,0,0,0,.82-.26,4,4,0,0,1,1.05-.32,3.39,3.39,0,0,0,1.53-.51l.09-.06a1,1,0,0,1,.92-.19,3.54,3.54,0,0,1,.57.22l.34.15c.28.09.55.2.83.32a7.09,7.09,0,0,0,1.27.44,9.18,9.18,0,0,0,2.11.27,3.16,3.16,0,0,0,1.4-.54,2.61,2.61,0,0,1,.66-.26l.29-.09a3,3,0,0,0,.55-.3,3.72,3.72,0,0,1,.38-.22l.28-.17a2.73,2.73,0,0,1,.61-.33,1.82,1.82,0,0,1,.75-.08h.15a1.92,1.92,0,0,0,1.69-.56,3.6,3.6,0,0,0,.61-1.13c.08-.19.15-.38.23-.56a3.41,3.41,0,0,0,.27-1.41v-.09a2.3,2.3,0,0,1,.32-1.48,2.17,2.17,0,0,1,2.18-.95,2.26,2.26,0,0,1,.57.15,1.18,1.18,0,0,0,.39.1h1.17a4,4,0,0,1,.57.07,1.86,1.86,0,0,0,.38.06h0a.41.41,0,0,1,.3.12,2.89,2.89,0,0,1,.18-.91c.16-.39.26-.87.46-1.25s.31-.62.49-.92c.27-.49.74-.7,1.08-1.14a3.27,3.27,0,0,0,.69-1.44c.12-.65-.14-.95-.6-1.41a4.56,4.56,0,0,1-1-1.1,3.82,3.82,0,0,1-.53-1.49c.16-1,1.71-1.43,2.41-1.83,1-.56,1.91-1,2.84-1.66.48-.32,1-.47,1.51-.8a5.15,5.15,0,0,1,1.15-.72c.69-.24,1.41-.31,2.11-.52s1.26-.39,1.92-.55a4,4,0,0,0,2.8-1.73,2.86,2.86,0,0,0,.41-1.51c0-.67.2-1.34.29-2a13.08,13.08,0,0,1,.64-3.14,11,11,0,0,1,1.59-2.65c.37-.48.81-.92,1.14-1.41.2-.29.46-.56.62-.83A2.45,2.45,0,0,0,177.82,127.89Z"/><path class="cls-37" d="M128.25,321.14a12.27,12.27,0,0,0-.85-2.87,8.86,8.86,0,0,1,0-2.57c0-1.65,0-3.3,0-5a10.88,10.88,0,0,0,0-1.51,7.63,7.63,0,0,1-.13-1.16h0l-.8.1a9.9,9.9,0,0,1-1.64.15h-.38a1.83,1.83,0,0,0-1.3.26c-.22.15-.41.31-.6.46a8.52,8.52,0,0,1-1.06.75,3.19,3.19,0,0,0-.82.78c-.15.18-.3.37-.49.56a1.55,1.55,0,0,1-1.34.47,1.71,1.71,0,0,0-.55,0,.63.63,0,0,0-.23.18,1.56,1.56,0,0,1-.42.3,1.35,1.35,0,0,1-.63.08h-.2c-.22,0-.44.08-.65.13a3.88,3.88,0,0,1-1,.16,2.34,2.34,0,0,1-.57-.07,5.5,5.5,0,0,1-1.31-.58l-.43-.23-.3-.14a2.28,2.28,0,0,1-1.17-.83,5.63,5.63,0,0,1-.43-1.37c0-.19-.09-.37-.14-.53-.26-.92-.63-1.83-1-2.72s-.62-1.56-.88-2.36c0-.19-.11-.38-.16-.58a3.53,3.53,0,0,0-.52-1.31l0,0a.08.08,0,0,1,0,0c-.21.76-.44,1.51-.7,2.26-.42,1.23-.87,2.45-1.31,3.67a49.88,49.88,0,0,1-1.61,4.74,14.9,14.9,0,0,1-.77,1.55c-.21.33-.5.9-.87,1-.79.3-.65-.79-1-1.16a6.57,6.57,0,0,0-1-.57c-.23-.15-.6-.44-.9-.28s0,.54.13.89.16.94.32,1.41a2.72,2.72,0,0,1,.08,2,2.53,2.53,0,0,0-.35.85,8.72,8.72,0,0,0-.19,1.45,6.17,6.17,0,0,0,0,1.29c0,.14.09.52.11.6.08.27,0,.16.28.35s.53.46.8.7a2.12,2.12,0,0,1,.66,1.35c.22.91.41,1.71.67,2.6a2.35,2.35,0,0,1,0,1.84,2.52,2.52,0,0,0-.45,1.26v.13a3.24,3.24,0,0,1,1,0,1.54,1.54,0,0,0,1-.11l0-.08a1.24,1.24,0,0,1,0-.16c0-.09.06-.18.1-.27a3.23,3.23,0,0,0,.14-.47,3.29,3.29,0,0,0,.06-.66.94.94,0,0,1,.51-.84,3.58,3.58,0,0,1,.49-.3c.33-.18.74-.41.76-.63a1.6,1.6,0,0,0,0-.64,1.64,1.64,0,0,1,0-.53,1.13,1.13,0,0,0,0-.34.83.83,0,0,1-.14-.23,1.2,1.2,0,0,1-.11-.55v-.1a1.73,1.73,0,0,0,0-.27,1.63,1.63,0,0,1,0-.83c.06-.22.14-.44.21-.66a10.63,10.63,0,0,0,.38-1.3,1.62,1.62,0,0,0,0-.22,2.45,2.45,0,0,1,0-.27,1.83,1.83,0,0,1,.06-.25,1,1,0,0,0,0-.12.62.62,0,0,0-.12-.25,2,2,0,0,1-.16-.28.42.42,0,0,1,.14-.51,1.49,1.49,0,0,1,.94-.11l.21,0h3.25a3.59,3.59,0,0,1,1,0,2.58,2.58,0,0,1,1.89,1.69c0,.15.07.29.11.44a3,3,0,0,0,.22.7,3.31,3.31,0,0,0,.29.47,2,2,0,0,1,.2.6,2.08,2.08,0,0,0,.7.13,4.06,4.06,0,0,1,.43.06l.33.07.72.14.11,0a1.56,1.56,0,0,1,.71.23,2,2,0,0,1,.52.55c.18.24.29.37.5.42a1.35,1.35,0,0,0,.45,0l.2-.06a1.24,1.24,0,0,1,.71-.07,1.65,1.65,0,0,1,1.11,1.32c0,.11,0,.25.08.4a1.84,1.84,0,0,0,.16.59c.13.13.53-.14.74-.28l.2-.13,1-.67a.94.94,0,0,0,.16-.14,1.43,1.43,0,0,1,.28-.26,3.06,3.06,0,0,1,.77-.3,4.62,4.62,0,0,1,1.44-.06l.29,0a3.09,3.09,0,0,1,.52.07,1.76,1.76,0,0,0,.39.06h.12a1.43,1.43,0,0,1,.39,0l.34.1a1.55,1.55,0,0,0,.29.09c0-.18,0-.37,0-.55C128.24,323.35,128.3,322.23,128.25,321.14Z"/><path class="cls-37" d="M108.9,301.21a4.3,4.3,0,0,1,.68,1.63l.15.53c.25.78.56,1.56.86,2.31s.73,1.84,1,2.79c.05.18.09.38.14.58a5,5,0,0,0,.36,1.15c.09.17.48.34.76.47l.34.15.46.25a4.75,4.75,0,0,0,1.11.5,2.36,2.36,0,0,0,1.17-.09,6.17,6.17,0,0,1,.77-.15H117a.52.52,0,0,0,.26,0,1,1,0,0,0,.15-.12,1.35,1.35,0,0,1,.6-.38,2.67,2.67,0,0,1,.8-.07.72.72,0,0,0,.71-.22,6.57,6.57,0,0,0,.44-.5,3.67,3.67,0,0,1,1-1,6.81,6.81,0,0,0,1-.69c.2-.16.41-.32.64-.48a2.61,2.61,0,0,1,1.82-.41h.35a7.68,7.68,0,0,0,1.52-.14l.83-.11h.17a2,2,0,0,1,.12-.59c.07-.18.37-.36.5-.49a3.41,3.41,0,0,0,.9-1.52,2.18,2.18,0,0,1-.09-.6,1.42,1.42,0,0,0,0-.32,3.8,3.8,0,0,0-1,.14,5.23,5.23,0,0,1-.77.15l-.42,0a1.53,1.53,0,0,0-.84.18,2,2,0,0,1-2.06.21c-.24-.08-.48-.13-.73-.19a5.27,5.27,0,0,1-1.66-.6l-.14-.09a2.24,2.24,0,0,1-.61-.45,1.62,1.62,0,0,1-.37-1,1.88,1.88,0,0,0,0-.33c0-.23-.42-.31-1.15-.23-.07,0-.08,0-.18.11a1.51,1.51,0,0,1-.26.23,1,1,0,0,1-1.24-.19l-.2-.16a2.7,2.7,0,0,1-.48-.43l-.11-.14a1.21,1.21,0,0,0-.24-.26l-.07-.05c-.13,0-.16,0-.27.2l-.06.1a.81.81,0,0,1-.7.49,1.44,1.44,0,0,1-.57-.07l-.29-.07a2.37,2.37,0,0,1-.79-.26,1.65,1.65,0,0,1-.52-.66l-.06-.12a1.26,1.26,0,0,0-.75-.66,3.39,3.39,0,0,0-.59-.16,4.1,4.1,0,0,1-.65-.16,2.49,2.49,0,0,1-.33-.16,1.14,1.14,0,0,0-.3-.14,3.5,3.5,0,0,0-.88-.14.43.43,0,0,1-.2-.06A3.9,3.9,0,0,1,109,300a7.75,7.75,0,0,1-.37.83C108.72,301,108.83,301.12,108.9,301.21Z"/><path class="cls-38" d="M120.68,375.57s0-.06,0,0Z"/><path class="cls-37" d="M127.42,325.6h-.34a3.09,3.09,0,0,1-.52-.07,1.76,1.76,0,0,0-.4-.06l-.29,0a4.19,4.19,0,0,0-1.19,0,2.35,2.35,0,0,0-.53.19l-.12.12a1.72,1.72,0,0,1-.34.3l-1,.64-.19.13c-.38.26-1.17.79-1.77.19a1.83,1.83,0,0,1-.4-1.05c0-.11,0-.22-.06-.3-.12-.41-.25-.7-.5-.75a.62.62,0,0,0-.27.05,1.55,1.55,0,0,1-.36.1,2.52,2.52,0,0,1-.73,0,1.63,1.63,0,0,1-1-.73,1.44,1.44,0,0,0-.32-.36,1.1,1.1,0,0,0-.37-.1l-.13,0-.75-.15-.32-.07-.35,0c-.49,0-1.17-.11-1.4-.64l0-.12a1,1,0,0,0-.1-.38,3.18,3.18,0,0,1-.6-1.39c0-.13-.06-.27-.1-.4a1.68,1.68,0,0,0-1.27-1.11,2.79,2.79,0,0,0-.77,0h-3.29l-.25,0a.94.94,0,0,1,0,.7l0,.11a1.09,1.09,0,0,1,0,.18,1.58,1.58,0,0,1,0,.37,11.81,11.81,0,0,1-.4,1.39l-.21.64a.81.81,0,0,0,0,.46,2.6,2.6,0,0,1,0,.36v.12a.57.57,0,0,0,0,.22,1.33,1.33,0,0,1,.19.35,2,2,0,0,1,.06.58,1.15,1.15,0,0,0,0,.33,2.55,2.55,0,0,1,.06.94c-.08.63-.69,1-1.18,1.24a4.27,4.27,0,0,0-.38.22l-.2.15a4.27,4.27,0,0,1-.07.86,5.45,5.45,0,0,1-.18.6l-.09.25,0,.1a.82.82,0,0,1-.39.57,2.29,2.29,0,0,1-1.52.24,3.17,3.17,0,0,0-.69,0,.31.31,0,0,1-.22.09v.24a7.4,7.4,0,0,1-.15,1.4,2.45,2.45,0,0,1,.79,1.22,3.78,3.78,0,0,1,0,.75c0,.22.12.44.17.65a17.55,17.55,0,0,0,.37,1.78,5.81,5.81,0,0,1,.3.86,5.94,5.94,0,0,0,.14.71c.26.84.78,1.47,1.09,2.26a3,3,0,0,1,.07,2,.4.4,0,0,1,.32,0,1.52,1.52,0,0,0,1.26.13,1.59,1.59,0,0,0,.39-.78c0-.11.07-.22.1-.31a1.74,1.74,0,0,1,.66-.82c.39-.32.62-.47.9-.47.45,0,.66.32.65.91v.15l.09.74c0,.26.12.41.17.42a1.79,1.79,0,0,0,.46,0,3.42,3.42,0,0,1,.64,0l.3.06a.68.68,0,0,0,.24,0l.25-.08.36-.12a8.87,8.87,0,0,1,.9-.14,2,2,0,0,1,1.06.07,1.18,1.18,0,0,1,.35.27l.1.09a1.12,1.12,0,0,0,.73.15,2.9,2.9,0,0,1,.63.05l.41.09a3.27,3.27,0,0,0,1.34.11c.29-.06.4-.2.62-.49a3.87,3.87,0,0,1,.33-.4c.84-.87,1.89-.32,2.59,0l.46.23.15.06a1.75,1.75,0,0,1,.68.4l.26.25.22.2a2.49,2.49,0,0,1,.27.31,1.43,1.43,0,0,0,.22.26l.09.06a1.41,1.41,0,0,1,.32.26,4.23,4.23,0,0,0,1-1,2.78,2.78,0,0,0,.41-2.3,7.41,7.41,0,0,0-.46-1.45,2.9,2.9,0,0,1-.41-1.68,7.21,7.21,0,0,1,.76-1.87,2.76,2.76,0,0,1,2-1.37c.33,0,.65.19,1,.18a4,4,0,0,0,.62-.14c.42-.08.5-.22.82-.54a3.29,3.29,0,0,0,1-1.46,1.68,1.68,0,0,0-.09-1,4.27,4.27,0,0,0-.36-1.15c-.16-.24-.46-.41-.65-.64a3.94,3.94,0,0,1-.63-2.61c0-.46,0-.9-.08-1.34a2.65,2.65,0,0,1-.64-.14Z"/><path class="cls-5" d="M138,260a3,3,0,0,1-.46.37,7.31,7.31,0,0,1-1.23.52l-.27.1a3.28,3.28,0,0,1-1.55.3,4.34,4.34,0,0,1-1.65-.82,3.51,3.51,0,0,1-.73-.7,3.65,3.65,0,0,0-.47-.49,2.17,2.17,0,0,0-.8-.33,1.1,1.1,0,0,0-1.34.33l-.06.07a1.28,1.28,0,0,1-1.07.49h-.18c-.22,0-.23,0-.33.08a1.4,1.4,0,0,0-.18.3l-.15.26-.13.19a1.54,1.54,0,0,0-.26.51,10.15,10.15,0,0,0-.29,1.59,5.44,5.44,0,0,1-.37,1.31,4.84,4.84,0,0,0-.29.86,8.09,8.09,0,0,0-.12.86l0,.22a3.85,3.85,0,0,0,0,.59,5.1,5.1,0,0,1,0,.78,3.59,3.59,0,0,1-.36,1.09,1.3,1.3,0,0,1-1,.62l-.25,0a3,3,0,0,0-1,.32,2.39,2.39,0,0,0-.59.95,1.2,1.2,0,0,0-.07.26l0,.12a.88.88,0,0,1,.14.17.66.66,0,0,0,.31.18,2.28,2.28,0,0,1,.36.15l.27.18a1.05,1.05,0,0,0,.28.17l.22.08a1.87,1.87,0,0,1,.76.4,5,5,0,0,0,1.46,1.08c.08,0,.12,0,.28,0L127,273a2.53,2.53,0,0,1,.48,0,1,1,0,0,0,.3,0L128,273a1.8,1.8,0,0,1,.31-.14l.33-.07.16,0,.08,0c.7-.16.84-.28.86-.33a1.23,1.23,0,0,0,0-.28,1.12,1.12,0,0,1,.49-1A1.15,1.15,0,0,1,131,271h.19c.21,0,.32-.11.55-.33l.1-.1a4.31,4.31,0,0,1,1-.7s1.62-.68,2.25-.24a.58.58,0,0,1,.18.2l.13.09a.77.77,0,0,1,.19.59,2.57,2.57,0,0,1-.07.4,1.32,1.32,0,0,0,0,.31v.17a1,1,0,0,0,.12.64,1,1,0,0,0,.37.32l.1-.05a1.21,1.21,0,0,1,.36-.17.87.87,0,0,1,1.08.76,1.46,1.46,0,0,0,.07.19,3.94,3.94,0,0,0,.53.91l.2.27a2.94,2.94,0,0,0,.34.44,1.85,1.85,0,0,0,.82.37,1.07,1.07,0,0,0,.58-.08l.14-.08a1.74,1.74,0,0,1,.62-.2c.08-.23.15-.46.23-.64.42-.95,1-1.61.45-2.64-.26-.52-.74-.73-.76-1.34a9.88,9.88,0,0,0-.18-1.11,7.93,7.93,0,0,1,.71-3.29,5,5,0,0,1,.37-.82,5.82,5.82,0,0,0,.4-.58,2.73,2.73,0,0,0,0-1.24c-.18-.7-.68-1.88-1.45-2a6,6,0,0,1-1.31-.16c-.36-.14-.44-.42-.66-.75a2,2,0,0,1-.24-.46.44.44,0,0,1-.12.15A1.71,1.71,0,0,0,138,260Z"/><path class="cls-38" d="M120.68,375.57h0Z"/><path class="cls-37" d="M134.65,285.23h-.16a1.82,1.82,0,0,0-.56.09l-.14,0a3.46,3.46,0,0,1-.89.12h-.14a1.34,1.34,0,0,1-.95-.5,3,3,0,0,1-.51-.76l-.18-.34c-.17-.26-.6-.28-1.12-.26a1.14,1.14,0,0,0-.66.2l-.14.07a1.38,1.38,0,0,1-1.09.22,1.64,1.64,0,0,1-.91-.88,1.67,1.67,0,0,0-.25-.38,1.79,1.79,0,0,0-.8-.42l-.29-.12a1.83,1.83,0,0,0-.51-.16c-.2,0-.34.18-.55.62-.06.12-.11.24-.17.34a.86.86,0,0,1-.87.4h-.21a2.12,2.12,0,0,0-.4.2l-.22.12a3.94,3.94,0,0,1-1,.32,5.62,5.62,0,0,1-3-.11,2,2,0,0,1-.87-.88,1.71,1.71,0,0,0-.46-.55l-.24-.17a7.64,7.64,0,0,0-.78-.49c-.13-.06-.15-.06-.19-.06a.31.31,0,0,1-.23,0,20.88,20.88,0,0,0-1.48,2.55c-.23.48-.29,1-.48,1.49a11.44,11.44,0,0,1-.71,1.34c-.29.55-.7.76-1.09,1.26-.71.92-.66,2.13-1,3.17a10,10,0,0,1-1.13,3.05,12.51,12.51,0,0,1-.73,1.11c-.32.32-.62.43-.59.92s.09.89.13,1.32a.3.3,0,0,1,.23-.07,4.33,4.33,0,0,1,1.1.17,2,2,0,0,1,.47.21l.22.11a3.18,3.18,0,0,0,.51.13,3.19,3.19,0,0,1,.78.22,2,2,0,0,1,1.13,1l.07.14a.92.92,0,0,0,.24.35,1.57,1.57,0,0,0,.5.14l.35.08a1,1,0,0,0,.26.05s.06,0,.08-.08l.07-.12a1.08,1.08,0,0,1,.88-.59.66.66,0,0,1,.56.15l.07.05a1.68,1.68,0,0,1,.42.43l.1.12a2.07,2.07,0,0,0,.34.3l.18.14a2.12,2.12,0,0,0,.27.2l.18-.15a1,1,0,0,1,.66-.34c.44-.05,1.79-.2,2,.85a3.21,3.21,0,0,1,.07.43,1,1,0,0,0,.16.56,2.42,2.42,0,0,0,.41.29l.17.1a4.7,4.7,0,0,0,1.41.49,7.06,7.06,0,0,1,.79.21c.67.21.85.22,1.36-.12a2.25,2.25,0,0,1,1.27-.31l.36,0a3.85,3.85,0,0,0,.66-.13,4,4,0,0,1,1.29-.14.56.56,0,0,1,.23.05.66.66,0,0,1,0-.14,2.54,2.54,0,0,1,.9-1.7c.67-.66,1.32-.63,2.17-.89a4.26,4.26,0,0,0,2.43-1.49c.43-.63.19-1.09.1-1.76a6.62,6.62,0,0,1,.31-1.68,11.38,11.38,0,0,0,.17-1.94c0-.62.42-1.48,0-2s-1-.37-1.56-.62c0,.2-.45-.24-.42,0-.24-.58-1-2.14-.26-2.5s2.36-.67,2.4-1.75c0-.41,0-.83,0-1.24A2.28,2.28,0,0,1,134.65,285.23Z"/><path class="cls-37" d="M137.62,274.69l-.18-.24a4.72,4.72,0,0,1-.64-1.11,2,2,0,0,1-.09-.26,1.1,1.1,0,0,0-.09-.23l-.14.1a.93.93,0,0,1-.66.17,1.56,1.56,0,0,1-.9-.66,1.66,1.66,0,0,1-.28-1.13v-.15a1.57,1.57,0,0,1,.07-.51,1.16,1.16,0,0,0,0-.18l-.12-.08a.51.51,0,0,1-.09-.16,4,4,0,0,0-1.35.31,3.19,3.19,0,0,0-.82.57l-.1.09a1.62,1.62,0,0,1-1,.55h-.31a.53.53,0,0,0-.26,0c-.08.05-.09.08-.1.34a1.57,1.57,0,0,1-.06.51c-.19.6-1,.78-1.45.89a2.18,2.18,0,0,1-.3.06.87.87,0,0,0-.22.05l-.15.07a1.33,1.33,0,0,1-.43.17,1.57,1.57,0,0,1-.53,0,1.48,1.48,0,0,0-.29,0,.72.72,0,0,0-.21.05,1.13,1.13,0,0,1-.82,0,5.81,5.81,0,0,1-1.73-1.24,1.07,1.07,0,0,0-.44-.22l-.27-.09a1.92,1.92,0,0,1-.46-.27,1,1,0,0,0-.2-.13.85.85,0,0,0-.22-.09,1.9,1.9,0,0,1-.53-.27l-.09-.11a1.47,1.47,0,0,1-1,.32,4.47,4.47,0,0,1-1.34-.26h-.1a1.25,1.25,0,0,1-.94-.31,3.94,3.94,0,0,1-.7,1.15c-.57.58-1.48,1.24-1.53,2.11,0,.62.11.59.51.92a1.71,1.71,0,0,1,.53,1.07,4.8,4.8,0,0,1-.44,1.53,19.38,19.38,0,0,0-.65,2,3,3,0,0,0,0,1.09,1.3,1.3,0,0,1,.47.15,9,9,0,0,1,.88.54l.23.16a2.57,2.57,0,0,1,.69.8,1.45,1.45,0,0,0,.51.57,4.86,4.86,0,0,0,2.47.06,3.22,3.22,0,0,0,.74-.25l.18-.1a2.59,2.59,0,0,1,.63-.29,1.77,1.77,0,0,1,.44,0H124a1.4,1.4,0,0,1,.11-.27c.21-.44.52-1.09,1.29-1.09h0a2.38,2.38,0,0,1,.82.22l.24.1a2.63,2.63,0,0,1,1.13.64,3,3,0,0,1,.36.52c.14.24.27.46.44.51s.24,0,.46-.15l.13-.07a2,2,0,0,1,1-.3c.62,0,1.46,0,1.89.64a3.78,3.78,0,0,1,.22.4,2.16,2.16,0,0,0,.36.56c.22.22.28.25.4.26a2.54,2.54,0,0,0,.81-.1l.13,0a2.54,2.54,0,0,1,.77-.12h.25a.39.39,0,0,1,.5-.08l.08.05c.06-.39.15-.77.22-1.16a3.42,3.42,0,0,1,.35-1.36,10.26,10.26,0,0,0,.79-1.72c.27-.77.33-1.59.58-2.36.14-.45.09-.78.39-1.13a2.11,2.11,0,0,1,1.12-.82l.27-.06a2.6,2.6,0,0,1-1-.53A4.08,4.08,0,0,1,137.62,274.69Z"/><path class="cls-37" d="M141.91,106a3.74,3.74,0,0,0,.43.15,2.23,2.23,0,0,1,1.13.68,1.34,1.34,0,0,1,.11.14.89.89,0,0,0,.16.17,1.14,1.14,0,0,0,.33.12,2.76,2.76,0,0,1,.43.15,2.12,2.12,0,0,1,.48.38,1.24,1.24,0,0,0,.21.19l.15.09a1,1,0,0,1,.41.47l.07.13.1.18a5.55,5.55,0,0,0,1.31-1.36,2.51,2.51,0,0,1,.9-.78,3.55,3.55,0,0,1,1.16-.27,4.55,4.55,0,0,0,.63-.09c.56-.15,1.13-.31,1.69-.48a3.08,3.08,0,0,0,.58-.28,4.23,4.23,0,0,1,.47-.25,3.23,3.23,0,0,1,.49-.18,3.39,3.39,0,0,0,.51-.2l.7-.34c.25-.12.49-.23.74-.37a11.33,11.33,0,0,0,1-.67l.36-.24a3.65,3.65,0,0,0,.37-.29.61.61,0,0,0,.07-.1,1.79,1.79,0,0,1,.23-.25.73.73,0,0,1,.34-.12s0,0,.06-.11a5.75,5.75,0,0,1,.44-.54,1.79,1.79,0,0,1,.25-.22.58.58,0,0,0,.12-.1.48.48,0,0,0,.09-.11,1.78,1.78,0,0,1,.27-.3.4.4,0,0,1,.39,0,3.15,3.15,0,0,1,.31-1.55,4.13,4.13,0,0,0,.33-1.73c-.13-1-1.64-.66-2.32-1.13-1.7-1.17,1.42-3.06.42-4.48a5.22,5.22,0,0,0-.82-.73,4.15,4.15,0,0,1-.8-1,4.67,4.67,0,0,1-.48-1.07,1.62,1.62,0,0,1,.48-1.94c.89-.59,3.3-.3,2.53-2a3.92,3.92,0,0,0-.43-.84c-.12-.16-.29-.28-.4-.44-.46-.69.32-1.28.79-1.75s1.35-1.08,1.38-1.7c0-.4-.5-1-.78-1.28a7,7,0,0,1-1.43-1.49,8.93,8.93,0,0,0-.67-1.08c-.57-.63-1.45-.92-2-1.59l0,0c-.06.17-.22.36-.38.37a1.13,1.13,0,0,0-.49.23l-.22.13a5.17,5.17,0,0,1-1.12.4l-.36.11a2.94,2.94,0,0,1-1.67,0l-.35-.07c-.23,0-.46-.06-.7-.08a7.53,7.53,0,0,1-.83-.1,4.58,4.58,0,0,0-1-.08c-.54,0-1.08,0-1.62-.07s-1.07-.07-1.63-.06h-.73c-.43,0-.86,0-1.28,0a2.68,2.68,0,0,0-.71.16l-.38.11a2.87,2.87,0,0,1-.69.08,2.17,2.17,0,0,0-.44,0,2,2,0,0,0-.23.1l-.24.12a2.05,2.05,0,0,1-.66.12l-.18,0a2.57,2.57,0,0,0-1.18.46l-.18.11a1.86,1.86,0,0,0-.51.37.39.39,0,0,1-.39.3,12,12,0,0,0,.57,2.31,11.63,11.63,0,0,1,.66,3c0,.47,0,1,0,1.43a8.24,8.24,0,0,0,.34,1.78,13.28,13.28,0,0,1,.33,3.2,17.44,17.44,0,0,1,0,2.17c-.08.58-.22,1.11-.27,1.7a7.18,7.18,0,0,1-.13,1.41,11.26,11.26,0,0,0-.27,1.82,13.83,13.83,0,0,0-.12,1.56,19.64,19.64,0,0,1-.31,2.53,4.82,4.82,0,0,0,.55,2.28,5.58,5.58,0,0,0,.8,1.37,1.86,1.86,0,0,1,.31.71,1.24,1.24,0,0,1,0,.16l.12,0A5.16,5.16,0,0,1,141.91,106Z"/><path class="cls-37" d="M120.46,403.79a1,1,0,0,0-.27-.22l-.17-.06a4.14,4.14,0,0,0-.84-.28,1.62,1.62,0,0,1-.82-.44c-.08-.06-.15-.13-.24-.19l-.08-.05a2.66,2.66,0,0,1-.72-.64l-.22-.3a7.71,7.71,0,0,1-.65-.93,2.68,2.68,0,0,1-.19-.42,1.56,1.56,0,0,0-.2-.41.81.81,0,0,0-.66-.05,1.8,1.8,0,0,0-.41.27,3.37,3.37,0,0,1-.45.32,1.68,1.68,0,0,1-2-.72,1.55,1.55,0,0,1-.23-.44,1.64,1.64,0,0,0-.1-.22l-.18,0h-.24a2.6,2.6,0,0,1-.56-.07l-.21,0a2.17,2.17,0,0,0-.82.1,3.44,3.44,0,0,1-.87.13.37.37,0,0,1-.18-.05,7.84,7.84,0,0,0-.57,1.12,6.4,6.4,0,0,0-.42.64,2.32,2.32,0,0,1-.48.92c-.29.28-.65.12-.88.39s0,.78,0,1.12a3.39,3.39,0,0,0,.23,1.18,10.89,10.89,0,0,1,1.26,2.7.67.67,0,0,1-.49.9c-.39.15-.41.29-.73.58s-.66.27-.74.81a11.51,11.51,0,0,0,0,1.66,2.36,2.36,0,0,1-.32,1.29c-.29.54-.62.77-.51,1.49a1.08,1.08,0,0,0,.26.55,6.4,6.4,0,0,0,.6,1c.23.25,2.37.85,2.11,1.33a14.08,14.08,0,0,0-3,1.35,1.66,1.66,0,0,1,1.51,1,1.88,1.88,0,0,1,0,1.28c-.14.89,0,1.63-1.07,1.92a10.49,10.49,0,0,1-2.17,0c-.71.05-.52.54-.74,1-.14.33-.36.39-.58.63s0,.72-.07,1a2.6,2.6,0,0,1-.15.67,2.81,2.81,0,0,0,.1,1,12,12,0,0,0,.07,1.7,5.28,5.28,0,0,0,.27.53l.06.45c.14.33.49.4.68.63.4.49.18.87.11,1.45s-.13,1.16-.2,1.74c0,.23,0,1.06-.25,1.24-.43-.31-.82-.67-1.25-1s-.62-.36-.75-.75c-.2-.62.22-1,.57-1.4a1.67,1.67,0,0,0,.2-1.92c-.26-.43-.5-.19-.94-.12-.76.1-1-.33-1.38-.92a2.63,2.63,0,0,1-.36-.63,4,4,0,0,1,0-1.2c0-.58-.4-1.93-1-2.15a2.51,2.51,0,0,0-1.51.13c0,.57.31,1,0,1.57a3.14,3.14,0,0,1-.43.6,3.74,3.74,0,0,1-1.63.77,2.82,2.82,0,0,1-1.81.31c-.27-.05-.82-.34-1.07-.3s-.8.83-.83.87c-.36.41-.76.76-1.12,1.17.09.17.28.12.44.16.42.11.83.25,1.25.35.57.14,1.36.19,1.58.83a3.25,3.25,0,0,1-.44,2.47,2.71,2.71,0,0,1-1.57.78c-.63.16-1,.71-1.48,1s-1.11.58-1.37,1.27a3.93,3.93,0,0,1-1.2,1.73,13.18,13.18,0,0,0-1.29,1.19.9.9,0,0,0-.27.55,2.82,2.82,0,0,0,0,1.29,3.23,3.23,0,0,0,1.25,1.49c.38.26,1.11.47,1.47,0s.13-1.45,0-1.91c-.18-.83-.86-1.63-.41-2.51s1.71-1.38,2.45-1.78a4.63,4.63,0,0,1,2.21-.6c.07.28-.39.69-.54.88a3.18,3.18,0,0,0-.79,1.42c.52.35.33.74.65,1.2a3.39,3.39,0,0,0,1.44.88c.32.14.62.29.94.42a3.46,3.46,0,0,1,1.33.58c.29.28.69,1.37,1.24,1.13.12-.26-.09-.66-.15-.9a4.81,4.81,0,0,1,2.42,0c.18,0-.81-.76-.65-.66.94.58,2,1.27,2,2.51,0,.38-.19.5-.31.83s-.07.67-.46,1c-.82.76-2,1.13-2.87,1.87a1.6,1.6,0,0,0-.63,1.37c.08.59.55.92.86,1.39s.41.76.65,1.13a6.09,6.09,0,0,1,.71,1.08,1.31,1.31,0,0,1-.12,1.09c-.16.21-.55.24-.7.52s0,.51-.12.78-.38.39-.63.56a2.79,2.79,0,0,0-1.12,1.59,4.39,4.39,0,0,0,.16,2.21c.14.42.6.78.86,1.13a8.14,8.14,0,0,0,1.65,1.45c.84.69.56,1.74.57,2.71a5.91,5.91,0,0,0,.14,1.39,1.17,1.17,0,0,0,.72.64c.22.22.19.3.1.59a19.56,19.56,0,0,0-.41,2.05,14.14,14.14,0,0,0-.38,3.24c0,.62.06,1.26,0,1.87,0,.39-.14.77-.18,1.16,0,.15,0,.3,0,.45s.23.2.42.07a5.78,5.78,0,0,1,1.25,0c.06.39-1.18,2.63-.35,2.63,0,.17-.26.32-.35.49-.32.59.24.79.19,1.37,0,.24-.13.49-.15.74a2.39,2.39,0,0,1-.06.63,4.13,4.13,0,0,1-.82,1.65c-.35.38-1.15,1-.82,1.58.18.34.72.65,1,.88s.73.68,1.1,1c.2.18.82.59.88.94s-.43.54-.77.56a8.91,8.91,0,0,1-1.85-.22c-.3,0-.77-.21-1,.06a11.62,11.62,0,0,0,.26,1.77c.11.36.27.71.38,1.07a1.32,1.32,0,0,0,.39.8c.27.19.53.09.85,0,.23.26-.27,1.09-.34,1.39-.49.46-.8-.29-1-.57s-.52-.2-.92,0a5.79,5.79,0,0,0-1.41,1,9.84,9.84,0,0,0-1.26,1c.06.43.46.72.75,1s.57.63.87.92a3.22,3.22,0,0,1,.88.92,2.57,2.57,0,0,0,.5.8,5.59,5.59,0,0,1,.72.74,4,4,0,0,1,.58,1.49c0,.21,0,.69.27.78.31-.37.32-1.07.79-1.3.18-.09.36,0,.55-.07.39-.08.61-.36,1.06-.29s.46.4.8.7.65.12.89.3.24.42.12.92a3.51,3.51,0,0,1-.66,1.29c-.24.34-1.08,1.23-.89,1.7.51.08,1-.12,1.54.06a1.91,1.91,0,0,1,1,1,8.26,8.26,0,0,1,1.15,2.3c.07.27.08.73.29.94s.93.15,1.27.22a4.63,4.63,0,0,1,1,.38c.3.12.63.15.92.29s.33.42.55.54c.41.23,1.07-.36,1.41-.51s1-.28,1.3-.68.15-.82.34-1.24,1-.9,1.27-1.1c.48-.34,1.08-.72,1.46-.1s-.18,2.65-1.09,1.82c0,0-1.59,1.42-1.72,1.51-.36.25-.74.39-1.11.61s-1,.51-1.45.79a2.55,2.55,0,0,1-.86.42,2.05,2.05,0,0,1-1.75-.82c-.28-.27-.48-.65-.89-.7a2.18,2.18,0,0,0-1.22.36,2.06,2.06,0,0,0-1,1.54c0,.19-.08,1.1.12,1.25s.82,0,1.18,0a1.78,1.78,0,0,1,.9.24c.6.44.59,1.37.75,2s1,.2,1.56.21a9,9,0,0,1,1,.2c.66.06.89-.39,1.26-.83s1.33-1.36,1.76-.85a2.14,2.14,0,0,1,.25.85,1.1,1.1,0,0,1-.31.58c-.26.26-.23.17-.63.27a2.81,2.81,0,0,0-.39.19c-.25.21-.43,1-.82,1s-.62-1.05-.83-.23a8.75,8.75,0,0,1-.16,1.16.17.17,0,0,0-.18.17v.15c-.17.68-.09,1.47-.28,2.16a5.67,5.67,0,0,0-.22,2.09c0,.33,0,.58.36.73a3,3,0,0,0,.95,0c.28-.09.42-.12.74-.2s.6-.37,1-.28.47.27.77.32a4.34,4.34,0,0,0,3.16-1,2.45,2.45,0,0,1,2.66-.21c.45.3,1.1.95,1.7.85a2,2,0,0,1,.42-.26,5.48,5.48,0,0,0,.79-.33c.46-.2.94-.34,1.39-.56a6.22,6.22,0,0,0,2.19-1.78c.46-.53,1.6-1.9,2.24-.61.43.88-.55,1.63-1.11,2.11a6,6,0,0,1-2.23,1.39c-.44.11-.84,0-1.28.08a2,2,0,0,0-1.29.88c-.38.48-1,1.47-1.75,1.55-1,.11-.76-.86-1.19-1.38s-1-.29-1.37-.27-.51.25-.89.57c-.17.14-.47.29-.65.41s-.45.15-.77,0-.55-.57-1.12-.62c-.75-.08-1.57,0-2.32,0-1,0-2.15,0-2.59,1.08s1.7.74,2.29,1a4.88,4.88,0,0,0,1.11.45,7.41,7.41,0,0,0,.94,0,2.77,2.77,0,0,0,1.37-.25c.28-.13.47-.29.77-.08s.55.88.73,1.24c.35.72,1.17,1.79,2.09,1.7a5.31,5.31,0,0,0,1.16-.4,3,3,0,0,1,1-.07,6.08,6.08,0,0,1,1.48.06c.61.17.73.37,1.15.92.6.78,1,1.65,2,2a3.77,3.77,0,0,0,1.19.29c1.2.06,2.42-.35,2.58-1.69a9.81,9.81,0,0,1,.29-2.81c.23-.57.58-1,.77-1.59a5.38,5.38,0,0,0,.13-2.73,17.42,17.42,0,0,0-.75-2.32,2,2,0,0,1,0-1.24c.21-1.05,1.33-1.17,2.12-1.57a11.06,11.06,0,0,0,2-1.77,11.25,11.25,0,0,1,1.88-1.7,3.3,3.3,0,0,1,1.4-.39,3.74,3.74,0,0,1,1.73.07c.48.25,1,.69,1,1.26a4.5,4.5,0,0,1-.15.8c-.26,1-1.23,1.2-2.15.79-.49-.22-1-.76-1.55-.73-.16,0-.55.16-.62.34-.19.56,1.36,1.91.49,2.43-.57.35-1.5-1.44-1.66-.23-.11.77.68,1.18,1.07,1.65.59.71.36,1.37-.56,1.62-.63.18-1.32.19-1.66.86a4.36,4.36,0,0,0,0,2.35,9.6,9.6,0,0,0,.32,2.07c.28.85,1,.55,1.67.35a20.06,20.06,0,0,0,3.47-1.73c.91-.47,2.39-1.77,3.34-.66a2.86,2.86,0,0,1,.26,2.07,2.05,2.05,0,0,1-.61,1.09,1.52,1.52,0,0,1-.6.39c-.33.16-.64.34-1,.5-.72.36-1.42.32-2.08.8a6.56,6.56,0,0,1-2,.94,2,2,0,0,0-.92.41c-.6.69,0,2.15.18,2.84a3.11,3.11,0,0,0,.93,1.57,11,11,0,0,0,2.21,1.7,13.41,13.41,0,0,0,3.57.73c.4.07,1.82,0,2.07.35s0,.65-.09.81c-.35.56-1,.45-1.47.24a29,29,0,0,0-3.05-.77c-.65-.19-1.63-1.11-2.34-.65-.51.33-.25,1-.95,1.09a2.92,2.92,0,0,1-1.78,0,5.66,5.66,0,0,1-.88-.64,2.78,2.78,0,0,0-.9-.38,6.93,6.93,0,0,1-2.08-1.1c-.46-.34-.66-.65-1.24-.68-.13.19.29.75.4.93a1.72,1.72,0,0,0,1,.79c.38.13.73.17.85.6a1.69,1.69,0,0,1-.2,1.12c-.14.33-.15.61-.46.76a1.44,1.44,0,0,1-1.06,0c-.54-.23-.62-.52-1.21-.43-1,.16-1.93.21-2.88.34a3.25,3.25,0,0,0-.89.27c-.32.15-1.13.41-1.32.73a2.39,2.39,0,0,0-.13,1.1c.14.76,1.59.64,2.14.69a7.57,7.57,0,0,1,1.21.35,5.8,5.8,0,0,0,1.5.16,12.48,12.48,0,0,1,2.23.47,7,7,0,0,1,2.53.51c.65.4.81,1.13,1.73,1,.32-.05.48-.17.81-.1a1.56,1.56,0,0,0,.83,0,2.8,2.8,0,0,0,.61-.28c.19-.13.32-.4.52-.48a1.45,1.45,0,0,1,1,.13c.15.14.15.07.11.29s-.25.38-.33.51a11.88,11.88,0,0,0-.67,1.55,9.27,9.27,0,0,0-.54,1.35,4.94,4.94,0,0,0-.07,1.33,2.57,2.57,0,0,0,.5,1.53,17,17,0,0,0,.87,2,5.32,5.32,0,0,0,1.27,1.19,2.51,2.51,0,0,0,2.06.43c.73-.38-.5-1.42-.67-1.88a1.25,1.25,0,0,1,.07-1c.1-.31.12-.82.44-1s.7,0,1,.08.7.35,1,.38c.63,0,1.26-.5,1.89-.53.9,0,1.33.77,1.76,1.45s.86,1.69,1.42,2.43c.4.52.9.89,1.3,1.39.27.33.43.59.9.64a.85.85,0,0,0,.91-.66,1.6,1.6,0,0,0-.15-1,10.05,10.05,0,0,1-.56-1.14,8,8,0,0,0-.53-1.33,12,12,0,0,0-2.24-2.49c-.21-.22-.92-.9-.82-1.29s.51-.35.8-.44a1.2,1.2,0,0,1,1.15,0,5.21,5.21,0,0,1,.87.76,5.38,5.38,0,0,0,1.22,1c.2.1.43.15.63.24a5.36,5.36,0,0,1,.82.69,1.46,1.46,0,0,0,1.78.16,4,4,0,0,1,1.53-.65,2.83,2.83,0,0,1,1.32.25c.48.26,1.46,1.07,2,1s.73-1,.72-1.47a2.14,2.14,0,0,0-.82-1.67c-.25-.14-.54-.19-.8-.34a5.93,5.93,0,0,0-1.41-.62c-.41-.11-.82-.18-1.23-.32a4.77,4.77,0,0,0-1.52-.37,19.61,19.61,0,0,1-2.3.34c-.52-.05-1.11-.06-1.62-.15s-1.59-1.81-2.13-1.81V517.14c-.45,0-.6-.29-.79-.62s-.16-.32-.65-.24a2.8,2.8,0,0,0-1.3.41,2.62,2.62,0,0,1-1.84.46c-.57-.14-.35-1-.35-1.53s.07-1.24-.65-1.4c-.55-.12-1.5.21-1.81-.48-.2-.46.24-1.3.56-1.59a6,6,0,0,1,1.26-.64l1.32-.66c-.14-.37-.95-.81-1.34-1-.56-.26-1.19-.37-1.77-.6a4.89,4.89,0,0,1-1.3-.78,3.7,3.7,0,0,0-1.71-.63,3.66,3.66,0,0,0-1.76.2,4.71,4.71,0,0,1-1.9.19,6.4,6.4,0,0,1-3.89-1.88v0h0c0-.06-.12-.11-.17-.18s0,.09.11.17a3.75,3.75,0,0,0-.67,0c-.57,0-1.12-.15-1.68-.18a28.82,28.82,0,0,0-2.94.18c-.85,0-1.66-.22-2.51-.19a9.06,9.06,0,0,0-1.87.51c-.33.08-.79.44-.91-.11-.05-.21.16-.49.19-.71a3.32,3.32,0,0,0,0-.89,2,2,0,0,0-.28-.8c-.35-.6-.76-1.15-1.08-1.76a8.5,8.5,0,0,1-1.07-2.43c-.07-.41-.25-1,0-1.41.47.46-.39-.63.18-.76h.12a3.72,3.72,0,0,0,.09-2.14,5,5,0,0,1-.18-2.1,3,3,0,0,0,0-1.85c-.07-.16-.16-.16-.21-.35s0-.32,0-.47a2,2,0,0,0-2.1-1.15,3,3,0,0,0-1.83.78,19.8,19.8,0,0,0-2,1.5c-.3.26-.31.28-.59-.07a3.82,3.82,0,0,1-.35-.47,3.73,3.73,0,0,1-.33-1.24c0-.4,0-.84,0-1.24a2.91,2.91,0,0,0-.5-1.18,6.49,6.49,0,0,1-.49-1.36,8.44,8.44,0,0,0-.31-1.41c-.51-1.29-1.44-2.58-1.5-4,0-.82.09-1.65,0-2.47,0-.55-.14-1.07-.16-1.63,0-1.2-.93-2.19.44-2.9a3.6,3.6,0,0,1,1.49-.25.53.53,0,0,0,.57-.35c.22-.43.1-.95.27-1.41a3.89,3.89,0,0,1,.19-.42,1.6,1.6,0,0,1-.61-.15.69.69,0,0,0-.19,0l-.24-.05-1.23-.37-.87-.25a3.9,3.9,0,0,1-1.48-.91l-.17-.14a1.18,1.18,0,0,0-.18-.13,3.16,3.16,0,0,1-.27-.2,3.57,3.57,0,0,1-.43-.44,3.18,3.18,0,0,0-.3-.33l-.16-.14a2.82,2.82,0,0,1-.36-.33,2.32,2.32,0,0,1-.34-.54l-.09-.18a2.81,2.81,0,0,0-.38-.44l-.23-.23a1.66,1.66,0,0,0-.4-.38,1.94,1.94,0,0,0-1,0,.42.42,0,0,1-.32.22.53.53,0,0,1-.43-.13.59.59,0,0,1-.15-.4.4.4,0,0,1,.26-.35,2.91,2.91,0,0,1,2-.06,2,2,0,0,1,.59.52l.25.25a2.91,2.91,0,0,1,.52.63l.11.21a1.25,1.25,0,0,0,.21.35,3.45,3.45,0,0,0,.28.26l.18.16a2.72,2.72,0,0,1,.37.39,2.81,2.81,0,0,0,.34.35,1.33,1.33,0,0,0,.19.14,2.48,2.48,0,0,1,.26.19l.18.15a3.18,3.18,0,0,0,1.16.74l.88.25,1.23.37.14,0a1.2,1.2,0,0,1,.41.11,1.37,1.37,0,0,0,.62.08l0,.14.3-.45a6.7,6.7,0,0,0,.51-.68c.13-.26.14-.54.35-.76s.72-.27,1.16-.39c1.12-.3,2.69-1.11,2.72-2.44a10.55,10.55,0,0,1-.19-2,8.08,8.08,0,0,1,.38-.79c.21-.57.26-1.22.48-1.78a6.25,6.25,0,0,1,1-1.55c.53-.61,1.16-1.11,1.67-1.73.23-.28.41-.4.39-.78a1.24,1.24,0,0,0-.46-.83c-.48-.45-1.22-.49-1.57-1.09-.21-.35-.08-.65-.09-1a3,3,0,0,0-.13-.7c-.18-.76-.54-1.2-.37-2a3.84,3.84,0,0,1,.62-1.18,1.6,1.6,0,0,0,.25-.57c.06-.22,0-.67.13-.87,0,0,0,0,0-.05s.09-.14.15-.52.22-.61.35-.91a2.79,2.79,0,0,1,.83-.95,4.12,4.12,0,0,0,1.05-1,3.14,3.14,0,0,0,.52-2.17c-.2-.59-.83-.85-.65-1.61a3.28,3.28,0,0,1,.91-1.25,3.54,3.54,0,0,0,1.07-1.57c.12-.44,1.38-2.37.84-2.63a1.41,1.41,0,0,0-.63,0,2.69,2.69,0,0,0,.46-.55,1.41,1.41,0,0,0,0-1.31,3.16,3.16,0,0,1-.46-1,5.3,5.3,0,0,1,0-.89,1,1,0,0,1,.27-.91c.29-.31.78-.53,1-.94.44-1-.16-2.07-.59-2.95a3.14,3.14,0,0,1-.32-1.78c.07-.54.54-.92.65-1.46a3.78,3.78,0,0,0,0-.89,3.15,3.15,0,0,1,.73-1.73,4.05,4.05,0,0,1,1-1,8.67,8.67,0,0,1,1-.46c.77-.36.89-1.75.9-2.5s.07-.83-.58-1.06a9.08,9.08,0,0,1-1.14-.54c-.28-.13-.57-.23-.86-.35a5.1,5.1,0,0,0-1.25-.32l-1.84-.34c-.55-.1-1.55-.17-1.92-.58-.21-.23-.5-.79-.16-1s.68,0,.93-.1a10.64,10.64,0,0,0,1.06-.55,5.9,5.9,0,0,0,1.06-.47,1.7,1.7,0,0,1,2.37.64c.24.41.25.65.8.4a6.08,6.08,0,0,0,.88-.45c.27-.2.47-.46.76-.65a1.74,1.74,0,0,0,.8-.89,3.35,3.35,0,0,0,.25-1.69,2.18,2.18,0,0,0-.54-1.25,2.27,2.27,0,0,0-.85-.75c-.18-.12-.32-.35-.53-.43-.57-.23-2,.54-2.47.77a.83.83,0,0,1-.83.08,6.34,6.34,0,0,0-.73-.26c-.23-.06-.12.17-.44-.06s-.42-1.14-.49-1.49a1.46,1.46,0,0,1,.06-1c.34-.59,1-.91,1.28-1.54a1.9,1.9,0,0,1-1.07-.25A1.85,1.85,0,0,1,120.46,403.79Zm1,32.87a3.32,3.32,0,0,1-.42,0,4.18,4.18,0,0,0-1.32-.08,6.76,6.76,0,0,0-1,.32,5.84,5.84,0,0,0-2,1.41,11.8,11.8,0,0,1-1,1.15c-.31.26-1.36.87-1.7.65-.57-.36.62-1.2.94-1.39.5-.32,1.11-.51,1.58-.88a13.88,13.88,0,0,1,1.1-.9C118.5,436.46,121.43,434.91,121.49,436.66Z"/><path class="cls-3" d="M119.16,361.12a3,3,0,0,1-.33.54l-.12.18a2.2,2.2,0,0,1-.61.65,2.65,2.65,0,0,1-1.46.38h-.82c-.11,0-.11,0-.22.19l-.15.2a3.54,3.54,0,0,1-1.65,1.39,2.29,2.29,0,0,1-1.46,0l-.27-.06a2.56,2.56,0,0,0-.77,0,3.13,3.13,0,0,1-.82.07,1.42,1.42,0,0,1-.8-.35A5.78,5.78,0,0,0,109,364a5.59,5.59,0,0,0-2.8-.84,3.5,3.5,0,0,0-1.13.23,3.41,3.41,0,0,0-.33.17,4.11,4.11,0,0,1-.42.21,4.32,4.32,0,0,1-1.47.27,6,6,0,0,0-.73.07,5.7,5.7,0,0,1-1.16.05,5.69,5.69,0,0,0-.83,0l-.4,0a4.28,4.28,0,0,0-.85.11,1.54,1.54,0,0,0-.45.27,2,2,0,0,1-.33.24.53.53,0,0,1-.12,0,2.14,2.14,0,0,0,.19.59,3.43,3.43,0,0,1,.35,1.36,1.83,1.83,0,0,0,0,.66,2.3,2.3,0,0,0,.31.58c.32.5.82.78,1.15,1.27a7.45,7.45,0,0,1,.87,1.71c.09.28.07.54.14.82s.29.63.38,1a3.17,3.17,0,0,1,0,1.47,1.88,1.88,0,0,1-.4,1.21,1.43,1.43,0,0,1-1.48.08,2.32,2.32,0,0,1-.89-.84,2.74,2.74,0,0,0-.3-.61c-.64-.43-.6.47-.54.84a10.63,10.63,0,0,1,.12,1.7c0,.51,0,1,0,1.54,0,.77-.19,1.51-.18,2.27s-.14,1.61-.16,2.43a12.77,12.77,0,0,0,0,2.31,8.52,8.52,0,0,1,0,2.08,16.32,16.32,0,0,1-.27,2.32,4.45,4.45,0,0,1-.87,1.48,7.41,7.41,0,0,0-.69,1.27,1.35,1.35,0,0,0,0,1.42c.08.1.22.17.32.28a2.3,2.3,0,0,0,.26.44c.47.35,1.29.07,1.79.35s.71.87,1.1,1.21a8.93,8.93,0,0,0,1.06.66,2.87,2.87,0,0,0,2,.61c.54-.07,1.27-.53,1.28-1.14a2.47,2.47,0,0,0-.7-1.4c-.75-.89-1.41-2.54-.57-3.58.54-.66,2.38-.81,2-1.91-.12-.41-.49-.59-.66-1a4.83,4.83,0,0,0-.39-1c-.26-.36-1-.87-.74-1.42.14-.29.76-.46,1-.63.43-.27.44-.35.19-.77s-1-.72-1.08-1.19a1.21,1.21,0,0,1,.47-1.11,5.24,5.24,0,0,0,.61-1c.23-.31.64-.38.89-.64a2.85,2.85,0,0,0,.53-1.87,1.55,1.55,0,0,0-.54-1.06c-.21-.21-.58-.31-.76-.52a3.26,3.26,0,0,1-.28-1.06,2.57,2.57,0,0,1,.71-2.58c.42.47,1.42,0,2,0a1.84,1.84,0,0,0,1.62-.56c.33-.48.15-1.31.3-1.86a5.31,5.31,0,0,1,.43-1,.82.82,0,0,1,.39-.65c.41-.08.75.45,1,.65s.63.33.91.56a4.56,4.56,0,0,1,1.31,1.64,2.72,2.72,0,0,1-.17,1.22,3.88,3.88,0,0,1-.42.58,2.17,2.17,0,0,0-.24.86,3.4,3.4,0,0,0-.17,1.41c.37,1.07,1.48,0,2-.05.19.32-.06.63-.08,1a5.91,5.91,0,0,0,0,.84,7.48,7.48,0,0,1,0,1.95c-.21.12-.46-.23-.63-.34a2.19,2.19,0,0,1-.45-.32c-.45-.4-.93-.47-1.12.24a8.17,8.17,0,0,0-.07,2.1,6.82,6.82,0,0,1,0,1.75c-.24.05-.53-.07-.76,0s-.4.58-.49.87a4.77,4.77,0,0,0,0,2.92c.11.29.24.58.52.65s.59-.05.88,0a1.36,1.36,0,0,1,1,.69c.13.41-.21.72-.44,1a3.72,3.72,0,0,1-.45.53,1,1,0,0,1-.64,0c-.31.07-.5.46-.61.74-.29.72.16,1.59,0,2.36s-.52.73-1,1.11a3.06,3.06,0,0,0-.69,1c-.32.75.53,2.81.76,3.53l.17.06a.44.44,0,0,1-.07-.22.41.41,0,0,1,.42-.4,2.68,2.68,0,0,0,.65-.11,3,3,0,0,1,1.14-.11l.24,0a2,2,0,0,0,.43.06H112a1.3,1.3,0,0,1,.51,0,1,1,0,0,1,.61.69,1.24,1.24,0,0,0,.11.23c.28.34.72.62.94.5a3.29,3.29,0,0,0,.33-.23,2.59,2.59,0,0,1,.6-.39,1.59,1.59,0,0,1,1.54.22,1.71,1.71,0,0,1,.41.71,2.71,2.71,0,0,0,.13.3,8.69,8.69,0,0,0,.59.85l.23.3a1.58,1.58,0,0,0,.51.44l.09.06a3.65,3.65,0,0,1,.31.24c.18.15.28.24.42.26a4.35,4.35,0,0,1,1,.33l.16.06a1.54,1.54,0,0,1,.55.4,1.86,1.86,0,0,0,.22.19,1.27,1.27,0,0,0,.75.12v0c0-.62-.39-1.19-.5-1.8a3.32,3.32,0,0,1,.19-1.11,5.54,5.54,0,0,0,.12-1.15,2.69,2.69,0,0,0-.07-1c-.1-.26-.3-.51-.42-.76A4.79,4.79,0,0,0,121,397c-.14-.17-.52-.27-.63-.46a2.46,2.46,0,0,1,0-1c0-.13.25-.27.36-.39a2.7,2.7,0,0,0,.75-2.38c-.08-.43-.1-2-.8-1.79-.52.17-.8,1.3-1.53,1.2-.53-.07-.74-.89-.76-1.32a7.42,7.42,0,0,0-.68-2.56c-.18-.43-.52-1-.29-1.5.13-.28.51-.4.64-.68a5.45,5.45,0,0,0,.13-.95c.07-.35.14-.75.19-1.11a7.5,7.5,0,0,0-.23-2.87,3.83,3.83,0,0,0-.29-.8c-.08-.16-.4-.46-.44-.61a1.32,1.32,0,0,1,.1-.7c.25-.76.73-.2,1.23,0s1.56.28,2-.23c.58-.74-.18-2.06-.33-2.8,0-.16-.1-.57.2-.47h.1a33.08,33.08,0,0,1-.83-3.93,10.91,10.91,0,0,1,.16-1.9,15,15,0,0,0,0-1.64c0-1-.26-2-.34-3-.05-.7,0-1.35-.14-2.05a12.67,12.67,0,0,1,0-1.51c0-.35,0-.71,0-1.07a1.66,1.66,0,0,1-.18.35C119.26,360.92,119.21,361,119.16,361.12Z"/><path class="cls-37" d="M122.66,344.62l-.15-.11a1.71,1.71,0,0,1-.37-.41c-.06-.07-.11-.14-.18-.21l-.19-.18a2.81,2.81,0,0,1-.31-.29.92.92,0,0,0-.37-.2l-.18-.07c-.17-.07-.34-.16-.53-.26-.75-.38-1.23-.59-1.62-.19a3.75,3.75,0,0,0-.26.33,1.8,1.8,0,0,1-1.11.8,4,4,0,0,1-1.69-.12l-.39-.08a2,2,0,0,0-.48,0,1.89,1.89,0,0,1-1.19-.3,1.3,1.3,0,0,1-.22-.19.35.35,0,0,0-.11-.09,1.11,1.11,0,0,0-.55,0,6.58,6.58,0,0,0-.9.14,1.11,1.11,0,0,0-.22.07,1.36,1.36,0,0,1-.46.13,1.34,1.34,0,0,1-.56-.07l-.18,0a2.3,2.3,0,0,0-.45,0,2.43,2.43,0,0,1-.66,0c-.28,0-.75-.24-.86-1.13l-.09-.74a1.55,1.55,0,0,1,0-.22l-.17.13a1.12,1.12,0,0,0-.45.51q0,.12-.09.27a2.1,2.1,0,0,1-.71,1.21,2.25,2.25,0,0,1-2.08-.07l-.13-.1c-.18.66-.4,1.32-.6,2s-.75,1.44-1,2.18c-.1.28-.09.61-.18.9a5.2,5.2,0,0,1-.4.82c-.26.52-.46,1.09-.69,1.63a19.52,19.52,0,0,1-1.28,2.69c-.25.4-.37.48-.42.9a7,7,0,0,0,.14,1.71,1.67,1.67,0,0,1,0,.77c-.13.46-.54.78-.63,1.26s.21,1.21.15,1.82a5.27,5.27,0,0,1-1,2.05,7.22,7.22,0,0,0-.84,2,1.79,1.79,0,0,1,.64-.36,4.15,4.15,0,0,1,1-.15l.36,0c.32,0,.63,0,.94,0a5.46,5.46,0,0,0,1,0,7.84,7.84,0,0,1,.82-.08A3.7,3.7,0,0,0,104,363l.32-.16a4.53,4.53,0,0,1,.44-.23,4.25,4.25,0,0,1,1.4-.28,6.69,6.69,0,0,1,3.24.94,8,8,0,0,1,.69.43c.23.17.3.22.43.23a2.32,2.32,0,0,0,.63-.06,3,3,0,0,1,1,0l.3.06a1.49,1.49,0,0,0,1,0,2.85,2.85,0,0,0,1.28-1.12l.12-.16a1,1,0,0,1,.83-.54c.22,0,.45,0,.68,0h.23a2,2,0,0,0,1-.26,1.54,1.54,0,0,0,.36-.42l.15-.2a4.64,4.64,0,0,0,.25-.42,3.24,3.24,0,0,1,.2-.36,1.47,1.47,0,0,0,.21-.89.41.41,0,0,1,.4-.42h0a.4.4,0,0,1,.28.12.28.28,0,0,0,0-.09,4,4,0,0,1,.77-1.63c.28-.43.94-1,1-1.52.1-.73-.51-1.36-.74-2a1.48,1.48,0,0,1,.57-1.7c.68-.53,1.21-.6.83-1.58a7.75,7.75,0,0,1-1-2.95,1.3,1.3,0,0,1,.59-1.18c.23-.11.59-.05.79-.22a2.94,2.94,0,0,0,.42-1.16c0-.14,0-.22,0-.29a.34.34,0,0,1-.07-.19Z"/><path class="cls-37" d="M137.51,76.58l.15-.09a3.43,3.43,0,0,1,1.53-.59l.2,0a1.4,1.4,0,0,0,.44-.07l.16-.08a1.93,1.93,0,0,1,.43-.17,3.17,3.17,0,0,1,.6,0,2.57,2.57,0,0,0,.5-.05l.34-.1a3.19,3.19,0,0,1,.92-.2c.44,0,.89,0,1.33,0h.72c.58,0,1.12,0,1.67.06s1.06.06,1.59.06a5.58,5.58,0,0,1,1.13.1,6,6,0,0,0,.74.09,7.11,7.11,0,0,1,.79.1l.37.07a2.14,2.14,0,0,0,1.25,0l.38-.11a4.16,4.16,0,0,0,.94-.33l.18-.11a2.17,2.17,0,0,1,.72-.33.34.34,0,0,1,.24-.06,1.78,1.78,0,0,1-.21-.44c-.11-.4-.06-.79-.13-1.18-.1-.68-.3-1.35-.39-2a8.2,8.2,0,0,0-.84-3,6.36,6.36,0,0,1-.72-1.57c-.12-.54-.37-1-.47-1.58a3.63,3.63,0,0,1,.39-1.94c.19-.47.69-1,.6-1.51-.23-1.32-2.24-.91-3.07-1.52a4.22,4.22,0,0,1-.73-1.56c-.18-.82.31-1.65.05-2.42-.18-.51-1.12-1.65-1.78-1-.16.17-.07.5-.19.72a1.44,1.44,0,0,1-.5.51c-.71.31-1.31-.66-1.88-.83a1.46,1.46,0,0,0-1.84.88,3.81,3.81,0,0,0,.07,1.54,3.31,3.31,0,0,0,.06.94,2.81,2.81,0,0,1,.26,1.1c0,.32,0,.65,0,1a3.34,3.34,0,0,1-.47,1.59c-.2.38-.31.78-.5,1.15a3.62,3.62,0,0,1-1.67,1.36,5.19,5.19,0,0,1-3.55.44,11.36,11.36,0,0,1-1.19-.19c-.31-.11-.5-.41-.85-.47,0,.31.3.54.35.85a8.43,8.43,0,0,1,0,.87c0,.49.34.75.48,1.19a7.06,7.06,0,0,1,.15.92,15.81,15.81,0,0,1,.2,2.57c0,.94.33,1.79.34,2.73s0,2.1.13,3.16A3.92,3.92,0,0,1,137.51,76.58Z"/><path class="cls-37" d="M140.26,216.34h-.2a1.94,1.94,0,0,1-.44-.08l-.1,0a.53.53,0,0,0-.22,0,1.87,1.87,0,0,1-.45,0,1.44,1.44,0,0,1-.35-.16l-.1-.06a4.57,4.57,0,0,0-1-.31c-.2-.05-.41-.1-.61-.17a3.12,3.12,0,0,0-.56-.09,2.56,2.56,0,0,1-1.09-.3,3.6,3.6,0,0,1-1-1.11,5.15,5.15,0,0,0-.43-.56,1.73,1.73,0,0,1-.42-1.5v-.18c0-.32,0-.63.08-1a7.39,7.39,0,0,0,.06-1.55,3.27,3.27,0,0,0-1.21-1.86c-.45-.4-.68-.36-.94-.15l-.15.12-.59.44a2.21,2.21,0,0,1-.63.27l-.21.07c-.67.25-1,1.47-1,2.57,0,.07,0,.13,0,.2a.78.78,0,0,1-.7,1,2.29,2.29,0,0,1-1.92-1.1,3.86,3.86,0,0,1-.34-.72,1.67,1.67,0,0,0-.53-.84,2.06,2.06,0,0,0-.58-.23,4.63,4.63,0,0,1-.59-.21,6.71,6.71,0,0,1,.12.9,5.23,5.23,0,0,0,0,1.25,4.78,4.78,0,0,0,.74,1.48c.26.32.59.47.8.84a1.71,1.71,0,0,1,.21,1.34c-.14.45-.51.45-.72.81a10.23,10.23,0,0,0-.44,1.58,6.52,6.52,0,0,1-.78,1.28,4.64,4.64,0,0,0-.56,1.27,3.56,3.56,0,0,1-.17.85,3.39,3.39,0,0,1-1.72,1.72c-.45.16-1.29-.08-1.51.43s.52,1.67.53,2.31-.34,1.26-.33,1.92c0,.47.15.91.15,1.38a16.43,16.43,0,0,0,.12,2.22,3.78,3.78,0,0,0,.14,1.22c.24.49.51.53.6,1.13a9.23,9.23,0,0,1,.12,1.28,7.29,7.29,0,0,1-.13,1.62c-.11.52.14.68.26,1.16.19.72.11,1.54.23,2.29s.31,2.07.46,2.86a15.4,15.4,0,0,1,.33,2.94,7.17,7.17,0,0,0,.07,1.91c.07.26.21.35.32.56a5.25,5.25,0,0,1,.28,1.07.4.4,0,0,1,.52.18c.21.23,1.57,0,1.85-.2a2.32,2.32,0,0,0,.38-.65,6.08,6.08,0,0,1,.33-.61,2.86,2.86,0,0,1,.36-.41,1.06,1.06,0,0,0,.15-.15c.14-.15.27-.32.41-.5a3.74,3.74,0,0,1,1.19-1.15,2.45,2.45,0,0,1,.35-.15,1.22,1.22,0,0,0,.36-.18,1.26,1.26,0,0,1,1.27-.22,3.42,3.42,0,0,1,1,.61,6,6,0,0,1,.59.64l.05.07a2.6,2.6,0,0,1,.1.25c.09.06.22.05.56,0a1.62,1.62,0,0,1,1,0,2.22,2.22,0,0,1,1.08,1.28,3.73,3.73,0,0,0,.16.35c.15.27.29.29.38.28a1,1,0,0,1,.19-.39c.39-.5,2.52-1.17,1.63-2.13-.19-.2-.57-.28-.8-.49a5.18,5.18,0,0,1-.73-1c-.11-.15-.28-1.47-.48-1.53a6,6,0,0,1-1-2,14,14,0,0,1,0-1.45,2.67,2.67,0,0,0-.19-1.28c-.27-.57-.73-1-1-1.63-.52-1.23.8-1.34,1.53-1.92a4.11,4.11,0,0,0,1.11-2.35,5.35,5.35,0,0,0,.18-1.19,7.69,7.69,0,0,0-.49-1.47c-.22-.95-.35-1.82.46-2.45,1.42-1.1,5.75-1.18,5.19-3.78-.14-.69-.57-.93-1-1.43a1.72,1.72,0,0,1-.23-1.42c.25-.88,1.12-1.46,1.15-2.44a4.07,4.07,0,0,0-.12-1,.44.44,0,0,1-.15-.05C140.54,216.34,140.46,216.34,140.26,216.34Z"/><path class="cls-37" d="M157,159.31a3,3,0,0,1-.57-.07l-.39-.06h-.28c-.31,0-.62,0-.93,0a1.73,1.73,0,0,1-.65-.15,1.4,1.4,0,0,0-.36-.1,1.36,1.36,0,0,0-1.42.58,1.63,1.63,0,0,0-.18,1v.1a4.49,4.49,0,0,1-.34,1.77c-.08.17-.15.34-.22.51a4.31,4.31,0,0,1-.76,1.39,2.73,2.73,0,0,1-2.31.82h-.18a1.5,1.5,0,0,0-.44,0,2,2,0,0,0-.43.25l-.35.2-.33.2a3,3,0,0,1-1,.48,2,2,0,0,0-.47.18,4,4,0,0,1-1.76.65,9.51,9.51,0,0,1-2.26-.27,7.88,7.88,0,0,1-1.49-.5c-.26-.11-.51-.22-.78-.31a2.75,2.75,0,0,1-.41-.17,1.92,1.92,0,0,0-.43-.17c-.11,0-.11,0-.26.07l-.1.07a4.19,4.19,0,0,1-1.88.63,3.71,3.71,0,0,0-.84.27,5.18,5.18,0,0,1-1,.31c-.11,0-.23,0-.36,0a.88.88,0,0,0-.47.08.46.46,0,0,1-.25.08h0c-.16.45-.41.92-.53,1.35s-.42.89-.51,1.38a12.42,12.42,0,0,0,0,1.83c0,.82-.19,1.66-.3,2.47s-.31,1.3-.45,2a2.2,2.2,0,0,1-.35.92c-.24.32-.58.51-.84.8a3.2,3.2,0,0,0-.66,1.6,3.79,3.79,0,0,0-.21.93c0,.29.09.57.14.85a4,4,0,0,1,0,.85,11.53,11.53,0,0,1,.18,2.63,13.73,13.73,0,0,1-.24,2.57c-.1.41-.34,1.13-.8,1.32s-.45,0-.71.36a2.36,2.36,0,0,0-.45,1c0,.37-.08.74-.1,1.11a4.12,4.12,0,0,1-.27.69c-.12.41-.07.84-.19,1.27a12.17,12.17,0,0,0-.38,2.77c0,.51,0,1,0,1.54a1.85,1.85,0,0,1-.1,1,5.25,5.25,0,0,1-1.39,1c-.29.2-.81.32-1,.56,0,.05-.42.11-.42.17a5,5,0,0,1-.44,2.46,5.39,5.39,0,0,0-.6,1.2c-.18.74.44,1.29.72,2a10.63,10.63,0,0,1,.76,2.27.41.41,0,0,1,.46-.06,2.27,2.27,0,0,0,.46.16,2.9,2.9,0,0,1,.82.35,2.41,2.41,0,0,1,.83,1.22,3.3,3.3,0,0,0,.26.57c.22.36.8.78,1.09.73h0s0-.08,0-.11,0-.18,0-.27c0-.65.18-2.8,1.56-3.32l.26-.08a1.28,1.28,0,0,0,.41-.18c.19-.12.36-.26.54-.4l.15-.12a1.42,1.42,0,0,1,2,.18,4.28,4.28,0,0,1,1.49,2.39,7.6,7.6,0,0,1-.07,1.73c0,.3-.06.6-.07.89v.2c0,.48,0,.65.2.89a6.94,6.94,0,0,1,.5.65,3.28,3.28,0,0,0,.8.88,1.89,1.89,0,0,0,.76.18,3.91,3.91,0,0,1,.72.13c.19.06.37.11.56.15a6,6,0,0,1,1.13.37l.16.09.14.07a.52.52,0,0,0,.22,0,1.57,1.57,0,0,1,.46.05l.12,0a.68.68,0,0,0,.22.05h.17a1.55,1.55,0,0,1,.3,0c-.26-1.06-.82-2.07-1.17-3.11a3.09,3.09,0,0,1,0-2.12,2.91,2.91,0,0,1,1.77-1.25,2.59,2.59,0,0,0,1.36-1.29,4.94,4.94,0,0,0,.34-2.44,18.75,18.75,0,0,1,.11-3.09,6.6,6.6,0,0,1,1.36-2.92,10.78,10.78,0,0,1,.92-1,6.4,6.4,0,0,0,.82-1.35c.41-.73.93-1.42,1.39-2.12a8.75,8.75,0,0,0,.92-2.21c.61-2,2.72-3.4,4.18-4.76a3.21,3.21,0,0,0,.94-1.31,4,4,0,0,0,0-1.15,5.76,5.76,0,0,1,0-2.15c.22-.71.54-1.48,1.36-1.47a6.45,6.45,0,0,1,1,.13c.47.08,1-.1,1.49,0,.28.07.43.47.68.5s.71-.31.86-.4c.31-.17.57-.4.89-.57.48-.25.77-.32.91-.86a6.4,6.4,0,0,0,.06-2.39c-.07-.46-.38-.66-.71-.94a5.79,5.79,0,0,1-.91-.8,7.2,7.2,0,0,1-.88-2.1,10.14,10.14,0,0,1-.6-1.73c0-.24,0-.42-.08-.65-.09-.46-.26-1.18.15-1.53.23-.19.56-.28.8-.47.09-.06.12-.15.22-.19s.17,0,.22,0a5.5,5.5,0,0,0,.59-.43,2.14,2.14,0,0,0,.41-.25c.21-.27,0-.82,0-1.13a11.76,11.76,0,0,1-.15-1.33,6.75,6.75,0,0,0-.49-2.2,24.72,24.72,0,0,0-1.18-2.22c-.22-.47-1.37-2.53-.63-3,.12.08,0-.12-.09-.18A.45.45,0,0,1,157,159.31Z"/><path class="cls-6" d="M134.22,247.86c-.07-.13-.13-.27-.19-.41-.18-.39-.33-.73-.64-.86a1.18,1.18,0,0,0-.52.07,1.27,1.27,0,0,1-1.44-.24.34.34,0,0,1-.1-.16,1.06,1.06,0,0,0-.06-.19,5.64,5.64,0,0,0-.47-.5,2.28,2.28,0,0,0-.75-.44.47.47,0,0,0-.51.1,2,2,0,0,1-.55.29,1.83,1.83,0,0,0-.26.11,3.22,3.22,0,0,0-.92.92,5.29,5.29,0,0,1-.46.56l-.17.18a1.86,1.86,0,0,0-.27.29,3.75,3.75,0,0,0-.25.49,3,3,0,0,1-.55.88,3.38,3.38,0,0,1-1.93.54,2.34,2.34,0,0,1-.38,0,1.56,1.56,0,0,1-.4-.12l0,.17c.07.29.26.54.33.83a4.18,4.18,0,0,1-.51,2.07,4.54,4.54,0,0,1-.46,1.06c-.17.26-.29.3-.34.68a15.08,15.08,0,0,0,0,1.9,11.7,11.7,0,0,1,0,2.44c-1,.36-1.3-1.9-2.37-1.63-.13.15,0,.32.09.49a8.45,8.45,0,0,1,.13,1,12,12,0,0,1-.15,2.46,10.46,10.46,0,0,0,0,3.53,8.06,8.06,0,0,1,.31,2.23,12.44,12.44,0,0,1-1,3.1,3.59,3.59,0,0,1-.31.66.38.38,0,0,1,.35.15.36.36,0,0,1,.09.24h.11l.32,0c.64.21,1.43.38,1.65,0a.92.92,0,0,0,.08-.29A2.07,2.07,0,0,1,122,270a3,3,0,0,1,.87-1.28,3.44,3.44,0,0,1,1.33-.45l.27-.05c.31-.05.4-.08.46-.21a2.67,2.67,0,0,0,.27-.81,3.45,3.45,0,0,0,0-.65,5.23,5.23,0,0,1,0-.69l0-.22a7.62,7.62,0,0,1,.14-.94,5.74,5.74,0,0,1,.32-1,4.46,4.46,0,0,0,.33-1.08,10,10,0,0,1,.31-1.75,2.23,2.23,0,0,1,.38-.74l.11-.17.11-.19a1.57,1.57,0,0,1,.34-.51,1.08,1.08,0,0,1,.93-.32h.14c.24,0,.25,0,.5-.25l.06-.07a1.9,1.9,0,0,1,2.13-.55,3.12,3.12,0,0,1,1.11.49,4.48,4.48,0,0,1,.57.59,2.91,2.91,0,0,0,.56.55,3.54,3.54,0,0,0,1.33.69,2.65,2.65,0,0,0,1.14-.25l.2-.08a6.57,6.57,0,0,0,1.17-.48.73.73,0,0,0,.18-.14.4.4,0,0,1,.26-.5,1,1,0,0,1,.6,0s0,0,0,0a9.76,9.76,0,0,1-.08-1.88,9.51,9.51,0,0,0-.07-2.56c-.22-.73-.9-1.31-.72-2.11a2.75,2.75,0,0,0-.62-2.56,5.82,5.82,0,0,1-1.2-1.39h0A1.19,1.19,0,0,1,134.22,247.86Z"/><path class="cls-37" d="M131.66,531.44a5.33,5.33,0,0,1-.92.79c-.12.09-.21.23-.33.33a.55.55,0,0,0-.68-.3c-.55.19-.45.7-.38,1.16a2.26,2.26,0,0,0,.85,1.44c.23.19.45.39.69.56s.32.16.42.35c.25.42.4,1.07.81,1.37a1.26,1.26,0,0,0,1.27,0,.58.58,0,0,0,.17-1l-.24-.12a3.75,3.75,0,0,1-.51-.38,2.69,2.69,0,0,1-.63-.58c-.41-.67.31-1.38.57-1.95a2.71,2.71,0,0,0,.11-.8,7,7,0,0,0,.06-1.12c0-.52.07-1,.1-1.53a.74.74,0,0,0-.22-.51c-.23-.3-.57-.35-1-.1,0,.59,0,1.17,0,1.75C131.78,531.08,131.83,531.21,131.66,531.44Z"/><path class="cls-38" d="M133,546.78a2.12,2.12,0,0,1-.12-.2c-.1-.1-.24-.11-.36-.18l-.07.08a3.9,3.9,0,0,0-.94-.51,3.1,3.1,0,0,0-.71-.23c-.11.21-.27.43-.16.68a1.45,1.45,0,0,0,.35.35,2.63,2.63,0,0,0,.67.22c.17,0,.33,0,.5,0s0,.41.08.54.24.11.35.13.7.17.81-.13a.94.94,0,0,0-.1-.43A2.6,2.6,0,0,0,133,546.78Z"/><path class="cls-37" d="M133,549.42a.65.65,0,0,0-.3-.06,2.3,2.3,0,0,1-.85-.34,2.07,2.07,0,0,1-.44-.34,3.13,3.13,0,0,1-.3-.2,1.67,1.67,0,0,0-.48-.34,2.58,2.58,0,0,1-.39-.14c-.26-.16-.32-.44,0-.51a1.83,1.83,0,0,0-.93-.93c-.32-.15-.68-.15-.93-.4a5.2,5.2,0,0,0-1.29-1,1.36,1.36,0,0,0-.77-.16c-.27,0-.32.09-.36.36s.07.37.26.58a3.93,3.93,0,0,0,.61.54,3.54,3.54,0,0,1,.7.58c.14.18.21.44.34.64.32.49,1,.61,1.42,1a2,2,0,0,1,.45.54,2.23,2.23,0,0,0,.49.58,2.42,2.42,0,0,0,1,.64,2.16,2.16,0,0,0,.6.17,2.34,2.34,0,0,0,.62-.15.85.85,0,0,0,.7-.75C133.12,549.52,133.12,549.5,133,549.42Z"/><path class="cls-37" d="M123.55,537.69c.16,0,.31,0,.47,0s.15,0,.25-.12.32-.61.59-.62c.15.16.2.38.39.54a1.39,1.39,0,0,1,.47.52,4.44,4.44,0,0,0,.44,1.1.38.38,0,0,0,.37.14,3.06,3.06,0,0,0,.74,0c.16,0,.24,0,.36-.12s.12-.4,0-.71,0-.33-.07-.5a2.05,2.05,0,0,0-.15-.67c-.22-.28-.72-.16-1-.27s-.46-.65-.53-1,0-.49-.08-.74-.09-.27-.24-.51a.78.78,0,0,0-.29-.33,2.78,2.78,0,0,0-.57-.21c-.39-.12-.81-.26-1.19-.41a2.77,2.77,0,0,0-.63-.22.82.82,0,0,1-.41-.18,1.23,1.23,0,0,1-.25-.26c-.13-.18-.14-.21-.37-.25a2.58,2.58,0,0,0-1.37.31,2.68,2.68,0,0,0-1,.6.79.79,0,0,0-.23.88,1.59,1.59,0,0,1,.1.57c0,.24-.29.43-.44.62a3.78,3.78,0,0,1-.71.73c-.14.11-.24.27-.37.39a4.09,4.09,0,0,1-.38.33,2.5,2.5,0,0,0-.81,1.31c-.07.36,0,.8.4.87a5.91,5.91,0,0,1,1.24-1.69,3.72,3.72,0,0,0,.57-.48c.15-.19.18-.44.32-.62a2.87,2.87,0,0,1,.46-.34,1.41,1.41,0,0,1,.51-.24c.47-.15.5.64.5,1a6,6,0,0,0,0,1.4c.07.27.26.87.59,1s.44-.58.49-.79.17-.48.23-.73,0-.42.25-.56c.08,0,.11.14.17.2a.67.67,0,0,0,.42.18A7.85,7.85,0,0,0,123.55,537.69Z"/><path class="cls-37" d="M117.13,534.88a.94.94,0,0,0,.3-.55c0-.18,0-.36,0-.54a1.44,1.44,0,0,1,.09-.43c.08-.1.22-.06.34-.08a.75.75,0,0,0,.33-.06c.1-.06.11-.14.19-.22s.16-.09.2-.21,0-.3.28-.22a1.24,1.24,0,0,0,0-.43,1,1,0,0,0-.32-.49.89.89,0,0,0-.47-.3,4.18,4.18,0,0,1-.71,0,1.07,1.07,0,0,1-.46-.6,1.57,1.57,0,0,1,0-.53c0-.15.1-.41,0-.53-.13-.35-.86-.23-1.15-.29a1.21,1.21,0,0,1-.71-.56,2.11,2.11,0,0,0-.56-.9,7.67,7.67,0,0,1-.64-.52,1.55,1.55,0,0,0-.44-.32A1.22,1.22,0,0,0,113,527a.69.69,0,0,0-.44.15,1.77,1.77,0,0,1-.42.15c-.17,0-.29.27-.36.43s.11.79-.26.8-.62-.32-1-.38a4.34,4.34,0,0,1-.61-.11c-.16-.06-.27-.17-.42-.24a.88.88,0,0,1-.46-.37c-.09-.17-.08-.43-.21-.58a1,1,0,0,0-.68-.22,1.61,1.61,0,0,0-.86.21,4.68,4.68,0,0,0-1.38,1.28c-.12.16-.27.38-.17.58s.45.18.7.18a7,7,0,0,1,1,.07c.23,0,.43,0,.53.24s.11.33.18.49.15.43-.07.57-.9.35-1,.79a1.56,1.56,0,0,0,.67-.09,2.72,2.72,0,0,1,.84-.13,1,1,0,0,1,.66.4,1,1,0,0,1,.12.23c.1.2.24.2.42.27a3.81,3.81,0,0,1,.45.23c.24.15.25.3.31.56s.13.25.15.41a5.23,5.23,0,0,1,0,.56,1.51,1.51,0,0,1-.46,1,8.86,8.86,0,0,0-.73.77,3.88,3.88,0,0,0-.35.63,3.66,3.66,0,0,0-.18.41c0,.14.07.2.19.25.36.17.55,0,.87-.15s.51-.29.77-.44.26-.12.38-.2c.39-.28.22-1,.23-1.44a.61.61,0,0,1,.2-.54c.16-.16.35-.33.53-.48a1.32,1.32,0,0,1,1.45-.3,1.54,1.54,0,0,1,.82.64c.08.13.12.18.09.32s-.24.29-.35.4-.4.45-.62.66-.37.31-.54.48-.54,1,.07.93a3.29,3.29,0,0,0,.76-.31,1.72,1.72,0,0,1,.78-.14,4,4,0,0,0,1-.21,1.45,1.45,0,0,0,.54-.08A3.57,3.57,0,0,0,117.13,534.88Z"/><path class="cls-37" d="M106.61,524.43c.4,0,.63-.28,1.09-.57-.18-.66-.88-1-1.41-1.31a1.59,1.59,0,0,0-.35-.22l-.43-.08a1.27,1.27,0,0,1-.29-.18,4.19,4.19,0,0,0-1.35-.68c-.27-.08-.55-.13-.82-.21s-.45-.18-.68-.26a5.88,5.88,0,0,0-.84-.27c-.36-.08-.62-.07-.76-.44-.08-.2-.13-.41-.21-.6l-.24-.44a1.29,1.29,0,0,0-.18-.35c-.18-.24-.74-.46-.91-.12a1,1,0,0,0,.11.74c.16.35.37.67.55,1a7.28,7.28,0,0,0,.88,1.11,3.06,3.06,0,0,1,.47.8.76.76,0,0,0,.38.39,3.16,3.16,0,0,1,.75.33.62.62,0,0,0,.24.15c.33.09.65-.17,1-.22a1.2,1.2,0,0,1,.65,0,4,4,0,0,1,.71.59c.12.1.26.15.38.24a3,3,0,0,0,.47.39A1.74,1.74,0,0,0,106.61,524.43Z"/><path class="cls-37" d="M106.12,515.07a2.86,2.86,0,0,0-.07-.28c-.08-.27-.25-.32-.65-.52a1.43,1.43,0,0,1-.24.81,1.87,1.87,0,0,1-.59.42c-.19.11-.38.2-.56.32a.64.64,0,0,0-.23.44,1.55,1.55,0,0,0-.1.7.53.53,0,0,0,.4.35c.25.08.5,0,.74.07a3.34,3.34,0,0,1,.84.43,1.8,1.8,0,0,1,.74.54.54.54,0,0,0,.21.24.49.49,0,0,0,.44,0,.27.27,0,0,1,.13-.13.72.72,0,0,1,.2-.09,1,1,0,0,0,.25-.32,1.21,1.21,0,0,0,.15-.64c0-.3,0-.34-.34-.33a.81.81,0,0,1-.66-.15c-.16-.18-.27-.43-.41-.62s-.29-.28-.33-.47a1.67,1.67,0,0,1,0-.5A.88.88,0,0,0,106.12,515.07Z"/><path class="cls-37" d="M99.34,509.49c.08-.24-.15-.57-.06-.84-.41-.22-1-.39-1.13-.87s-.08-.89-.19-1.32a1,1,0,0,0-.49-.59c-.26-.15-.6-.19-.76-.47s-.07-.76-.35-1-.65.13-.78.41a2.49,2.49,0,0,0,0,1.86,4.53,4.53,0,0,0,.77,1.23,1.47,1.47,0,0,1,.37.62c0,.17.09.36.12.54s0,.47.1.71a2.76,2.76,0,0,1,.14.75c0,.45-.12.88-.15,1.32s-.05.9.41,1a1.08,1.08,0,0,0,1-.24,2.22,2.22,0,0,0,.57-1.25,2.66,2.66,0,0,0,.08-.69,3.33,3.33,0,0,1,0-.63C99,509.8,99.26,509.71,99.34,509.49Z"/><path class="cls-38" d="M103.38,507.48a1.74,1.74,0,0,1-.47-.38c-.18-.23-.23-.5-.48-.68s-.56-.22-.77-.46a.92.92,0,0,0-.26-.26c-.21-.11-.46-.18-.54-.29-.4.4,0,.9.15,1.33.12.27.23.56.36.83a1,1,0,0,0,.81.54c.17,0,.36,0,.53,0a1.53,1.53,0,0,1,.27.11,1.85,1.85,0,0,0,.87.13.81.81,0,0,0,0-.53C103.82,507.7,103.51,507.57,103.38,507.48Z"/><path class="cls-37" d="M101.83,511.44a1.71,1.71,0,0,0-.27.56,2.16,2.16,0,0,0,0,.62c0,.17,0,.3.16.4a.7.7,0,0,0,.37.11c.28,0,.49-.32.54-.57s0-.41.13-.57.26-.13.35-.28a1.5,1.5,0,0,0,.1-.56,1.48,1.48,0,0,0,0-.7c-.13-.24-.42,0-.76-.28A4.59,4.59,0,0,1,101.83,511.44Z"/><path class="cls-37" d="M88.9,465.32a2.18,2.18,0,0,1,1.23-.19h.46a1,1,0,0,0,.24-.05,1.59,1.59,0,0,1,.64-.06,1.91,1.91,0,0,1,.46.14l.29.09a1.26,1.26,0,0,0,.76-.18,2.85,2.85,0,0,1,.63-.25,3.16,3.16,0,0,1,2.4.33.59.59,0,0,1,.16.12.75.75,0,0,1,.53.2,1.68,1.68,0,0,1,.18.21l.07.09h.16a.55.55,0,0,1,0-.45c.19-.45.63-1,.19-1.44a2.63,2.63,0,0,1-.52-.8c-.13-.24-.32-.43-.46-.66a3.93,3.93,0,0,1-.23-.76,2.44,2.44,0,0,1-.25-.63,1.29,1.29,0,0,0-.83-1.11l-.65-.28a5.86,5.86,0,0,1-.55-.3.78.78,0,0,1-.38-.56c-.06-.19,0-.37-.08-.56-.14-.36-.37-.3-.71-.34a2.08,2.08,0,0,1-.92-.19c0-.54.86-.7,1.25-.44a1.25,1.25,0,0,0,.72.27c.32,0,.52-.42.62-.67a5.3,5.3,0,0,0,.27-1c.06-.32,0-.64.08-1a1.86,1.86,0,0,0,0-.47c0-.22-.12-.44-.17-.65a3.76,3.76,0,0,0-.2-1.12c-.32.39-.69.76-1,1.17-.16.23-.3.49-.45.72a2.43,2.43,0,0,1-.6.75,2.36,2.36,0,0,1-.57.18,3.19,3.19,0,0,0-1,.77c-.38.35-.94.14-1.41.24a2.67,2.67,0,0,0-1.26.59c-.32.28-.32.77-.41,1.17a8.28,8.28,0,0,0-.25,1.49,4.66,4.66,0,0,0,.15,1.23,2.4,2.4,0,0,1-.09,1.75,4.89,4.89,0,0,0-.49.9,2.23,2.23,0,0,0,.19,1.6,8.94,8.94,0,0,0,.68,1A2.63,2.63,0,0,1,88.9,465.32Z"/><path class="cls-37" d="M91.6,480.33a4,4,0,0,1,.76.61,2.69,2.69,0,0,0,.82.47c.19.06.53.16.72,0s.27-.62.26-.89c0-.64,0-1.29,0-1.93a6,6,0,0,1,0-1.34,9.94,9.94,0,0,1,.29-1.48h.37a1.09,1.09,0,0,1,.6.63,2.92,2.92,0,0,1,.41,1.39c0,.89-.34,1.74-.34,2.63a5.73,5.73,0,0,0,.08,1,2.16,2.16,0,0,1,.06.84c-.06.34-.48.73,0,.94a1,1,0,0,0,1-.27,5.39,5.39,0,0,0,.71-.55,3.16,3.16,0,0,0,.55-.61A5.11,5.11,0,0,0,98.3,480a6.71,6.71,0,0,0,.12-1.55,5.23,5.23,0,0,0-.64-1.48,4.29,4.29,0,0,1-.24-.59,3.76,3.76,0,0,1-.1-.75c0-.32-.06-.64-.09-1a9.58,9.58,0,0,0-.19-1.07,12.11,12.11,0,0,1,.23-3.7,3,3,0,0,1,.27-1.29s0,0,.1-.34a5.39,5.39,0,0,0-.29-1.92l-.06-.1a.39.39,0,0,1-.3.27.84.84,0,0,1-.88-.37.48.48,0,0,0-.09-.11.44.44,0,0,1-.23,0,.73.73,0,0,1-.29-.17,2.31,2.31,0,0,0-1.8-.27,2.65,2.65,0,0,0-.49.2,2,2,0,0,1-1.24.25,2.39,2.39,0,0,1-.45-.14,1.55,1.55,0,0,0-.29-.09.81.81,0,0,0-.32.05,2.32,2.32,0,0,1-.38.07h-.56a1.47,1.47,0,0,0-.8.09c-.15.09-.34.21-.49.32a.46.46,0,0,1-.07.27.62.62,0,0,1-.49.28A9,9,0,0,1,88.7,468a7.59,7.59,0,0,1,.2,2.47c0,.69,0,1.36.09,2a21.15,21.15,0,0,1,.27,2.1,3.77,3.77,0,0,1-.33,2.23c-.09.15-.23.29-.31.45a1.8,1.8,0,0,0-.16.56,2.22,2.22,0,0,0,.2,1.56c.16.24.42.29.52.58s0,.41.23.58.32.1.56,0a9.43,9.43,0,0,1,1-.32A.88.88,0,0,1,91.6,480.33Z"/><path class="cls-37" d="M92.19,487.9c.32,0,.65,0,1,0s.57-.47.73-.73a3.44,3.44,0,0,1,.87-1.16c.23-.15.53-.13.76-.32a1.49,1.49,0,0,0,.43-1c.05-.86-1.14-.68-1.69-.73a1.25,1.25,0,0,1-.73-.28,1.48,1.48,0,0,1-.39-.89c0-.21-.11-.53-.34-.62a1.67,1.67,0,0,0-.32,0,.56.56,0,0,0-.42,0,24.71,24.71,0,0,0-.71,2.41,4,4,0,0,0-.15,1.09,1.38,1.38,0,0,0,.13.53c.07.12.22.23.25.38.07.49-.67.69-1,.93s-.34.59.07.65a2.36,2.36,0,0,0,.65-.14A2.47,2.47,0,0,1,92.19,487.9Z"/><path class="cls-37" d="M91.93,489.35c-.54-.34-.78,1.17-.8,1.39s0,.7-.07,1.05a5.69,5.69,0,0,0-.08.81c0,.45.42.91.9.73s.24-.76.28-1.1a1.12,1.12,0,0,1,.58-1,2,2,0,0,0,.5-.27,2.37,2.37,0,0,0,.44-.55c.18-.27.5-.67.17-.94S93.17,489.19,91.93,489.35Z"/><path class="cls-37" d="M97.91,418.64a2.72,2.72,0,0,1-.77.65c-.64.31-.75.71-.71,1.43a.73.73,0,0,0,.41.75v-.13a1.29,1.29,0,0,0,1,.11c.19-.1.27-.34.36-.52a3.69,3.69,0,0,0,.37-.92c.07-.36.24-1.19-.08-1.44A.45.45,0,0,0,97.91,418.64Z"/><path class="cls-37" d="M95.5,412.6a2.77,2.77,0,0,0,.15,1.11c.13.3.34.92.75.92a1.67,1.67,0,0,0,.52-.17c.17-.08.29-.26.48-.33a1.47,1.47,0,0,1,.59-.06c.32,0,.86.06.87.47s-.44.58-.63.77c-.5.48-.52.68-.18,1.28A4.59,4.59,0,0,0,99.43,418a1.94,1.94,0,0,1,1,1.38,3.56,3.56,0,0,1-.21,2.14,2.66,2.66,0,0,0-.11,1.6l.11,0a1.59,1.59,0,0,0,2.08-.4,3.24,3.24,0,0,0,.34-2,1.68,1.68,0,0,0-.1-.44c0-.17,0-.33-.06-.51s-.16-.3-.09-.56.44-.5.51-.8-.25-.68-.37-1a3.89,3.89,0,0,1-.17-.65c-.07-.59,0-1.14-.09-1.73a1.19,1.19,0,0,1,.17-.95,1,1,0,0,0,.21-.74c-.06-.28-.26-.42-.28-.73s0-.54-.46-.6c-.79-.09-.89-.6-.88-1.28a5.22,5.22,0,0,1,.23-2.08,5.41,5.41,0,0,0,.42-1.73,2.53,2.53,0,0,0-.59-1.8c-.32-.46-.51-.72-.82-.16a3.73,3.73,0,0,0-.45,1.78c0,.64-.15,1.27-.14,1.92s.13,1.6-.76,1.74-.88-.47-1.12-1.17c-.11-.33-.15-.69-.6-.68a2.15,2.15,0,0,0-.9.37c-.59.6.69,1.39,0,2s-1.65.06-2-.52a2,2,0,0,0-1.18.33c-.41.27-1.6.62-1.48,1.3a5.84,5.84,0,0,0,1.72.53C94.06,412.62,94.8,412.47,95.5,412.6Z"/><path class="cls-38" d="M98.72,401.3l0,0s0,0-.05,0Z"/><path class="cls-37" d="M99.19,401.5c.34.17.68.41,1,.55a5.14,5.14,0,0,1,.9.21,3.27,3.27,0,0,0,.25.36.55.55,0,0,0,.35.2,1.06,1.06,0,0,1,.34.12.48.48,0,0,0,.15.22,1,1,0,0,0,.41,0c.54-.06.73-1,.34-1.34a2.31,2.31,0,0,0-.87-.41,3.22,3.22,0,0,1-1-.58c-.74-.6-1.19-1.59-2.36-1.3a1.72,1.72,0,0,0-.14.83c.05.26.33.51.26.78l-.1.09A2.26,2.26,0,0,0,99.19,401.5Z"/><path class="cls-39" d="M196.6,481.6a.57.57,0,0,1,0,1.13"/><path class="cls-39" d="M103.92,482.73a.57.57,0,0,1,0-1.13"/><polygon class="cls-5" points="163.86 239.46 167.37 246.56 175.2 247.7 169.53 253.22 170.87 261.02 163.86 257.34 156.85 261.02 158.19 253.22 152.53 247.7 160.36 246.56 163.86 239.46"/><text class="cls-40" transform="translate(49.22 72.1)"><tspan class="cls-41">A</tspan><tspan class="cls-42" x="5.5" y="0">r</tspan><tspan x="8.5" y="0">ica y </tspan><tspan class="cls-43" x="27.11" y="0">P</tspan><tspan x="31.68" y="0">a</tspan><tspan class="cls-44" x="36.04" y="0">r</tspan><tspan x="39.03" y="0">ina</tspan><tspan class="cls-45" x="50.52" y="0">c</tspan><tspan x="54.52" y="0">ota</tspan></text><text class="cls-40" transform="translate(83.1 92.02)"><tspan class="cls-46">T</tspan><tspan x="3.91" y="0">a</tspan><tspan class="cls-47" x="8.27" y="0">r</tspan><tspan x="11.18" y="0">apacá</tspan></text><text class="cls-40" transform="translate(68.75 129.66)"><tspan class="cls-41">A</tspan><tspan class="cls-48" x="5.5" y="0">n</tspan><tspan class="cls-49" x="10.49" y="0">t</tspan><tspan x="13.42" y="0">ofagasta</tspan></text><text class="cls-50" transform="translate(71.69 182.5)">A<tspan class="cls-51" x="5.44" y="0">tacama</tspan></text><text class="cls-40" transform="translate(62.67 231.51)"><tspan class="cls-52">C</tspan><tspan x="5.14" y="0">oquimbo</tspan></text><text class="cls-40" transform="translate(72.28 256.54)"><tspan class="cls-53">V</tspan><tspan class="cls-51" x="4.75" y="0">alpa</tspan><tspan class="cls-54" x="20.74" y="0">r</tspan><tspan x="23.65" y="0">aíso</tspan></text><text class="cls-40" transform="translate(70.88 280.6)">O&apos;<tspan class="cls-55" x="7.93" y="0">H</tspan><tspan x="13.91" y="0">ig</tspan><tspan class="cls-45" x="21.08" y="0">g</tspan><tspan x="26.08" y="0">ins</tspan></text><text class="cls-56" transform="translate(77.61 294.12)">M<tspan class="cls-51" x="7.32" y="0">aule</tspan></text><text class="cls-40" transform="translate(74.54 307.21)">Ñuble</text><text class="cls-40" transform="translate(63.66 318.1)">Biobío</text><text class="cls-40" transform="translate(53.06 338.01)"><tspan class="cls-41">A</tspan><tspan class="cls-54" x="5.5" y="0">r</tspan><tspan x="8.42" y="0">aucanía</tspan></text><text class="cls-40" transform="translate(59.19 355.9)"><tspan class="cls-57">L</tspan><tspan x="4.14" y="0">os </tspan><tspan class="cls-55" x="14.6" y="0">R</tspan><tspan x="19.55" y="0">íos</tspan></text><text class="cls-40" transform="translate(52.6 385.61)"><tspan class="cls-57">L</tspan><tspan x="4.14" y="0">os Lagos</tspan></text><text class="cls-58" transform="translate(54.33 440.17)">A<tspan class="cls-49" x="5.34" y="0">y</tspan><tspan class="cls-51" x="9.55" y="0">sén</tspan></text><text class="cls-56" transform="translate(40.63 528.88)">M<tspan class="cls-51" x="7.32" y="0">agallanes</tspan></text><path class="cls-59" d="M142.09,68.58a1.1,1.1,0,0,0-1.05.83h-11.4a1.11,1.11,0,1,0,0,.57H141a1.09,1.09,0,0,0,1.05.82,1.11,1.11,0,0,0,0-2.22Z"/><path class="cls-59" d="M142.09,88.79a1.1,1.1,0,0,0-1.05.83h-11.4a1.11,1.11,0,1,0,0,.57H141a1.09,1.09,0,0,0,1.05.82,1.11,1.11,0,0,0,0-2.22Z"/><path class="cls-59" d="M142.09,125.81a1.1,1.1,0,0,0-1.05.83h-11.4a1.11,1.11,0,1,0,0,.57H141a1.09,1.09,0,0,0,1.05.82,1.11,1.11,0,0,0,0-2.22Z"/><path class="cls-59" d="M142.09,179.37a1.09,1.09,0,0,0-1.05.83h-22.7a1.09,1.09,0,0,0-1.06-.83,1.11,1.11,0,1,0,1.06,1.39H141a1.1,1.1,0,0,0,1.05.83,1.11,1.11,0,1,0,0-2.22Z"/><path class="cls-59" d="M123.5,227.87a1.1,1.1,0,0,0-1,.83h-11.4a1.11,1.11,0,1,0,0,.57h11.4a1.1,1.1,0,0,0,2.16-.29A1.11,1.11,0,0,0,123.5,227.87Z"/><path class="cls-59" d="M129.35,253.17a1.09,1.09,0,0,0-1,.82H116.9a1.1,1.1,0,0,0-1.06-.82,1.11,1.11,0,1,0,1.06,1.39h11.4a1.1,1.1,0,1,0,1-1.39Z"/><path class="cls-59" d="M147.78,265.81a1.1,1.1,0,0,0-1.06.83h-11.4a1.11,1.11,0,1,0,0,.57h11.4a1.1,1.1,0,0,0,1.06.82,1.11,1.11,0,0,0,0-2.22Z"/><path class="cls-59" d="M125.47,277.45a1.09,1.09,0,0,0-1,.83H113a1.09,1.09,0,0,0-1.06-.83,1.11,1.11,0,1,0,1.06,1.39h11.4a1.1,1.1,0,0,0,1,.83,1.11,1.11,0,0,0,0-2.22Z"/><path class="cls-59" d="M119.89,290.58a1.1,1.1,0,0,0-1.06.83h-11.4a1.11,1.11,0,1,0,0,.57h11.4a1.1,1.1,0,0,0,1.06.82,1.11,1.11,0,0,0,0-2.22Z"/><path class="cls-59" d="M115.34,304.07a1.09,1.09,0,0,0-1,.82h-11.4a1.1,1.1,0,0,0-1.06-.82,1.11,1.11,0,1,0,1.06,1.39h11.4a1.1,1.1,0,1,0,1-1.39Z"/><path class="cls-59" d="M106.58,314.61a1.08,1.08,0,0,0-1,.83H94.13a1.1,1.1,0,0,0-1.06-.83A1.11,1.11,0,1,0,94.13,316h11.4a1.09,1.09,0,0,0,1,.83,1.11,1.11,0,0,0,0-2.22Z"/><path class="cls-59" d="M108.71,334.58a1.09,1.09,0,0,0-1,.83H96.26a1.09,1.09,0,0,0-1.06-.83A1.11,1.11,0,1,0,96.26,336h11.4a1.1,1.1,0,1,0,1-1.39Z"/><path class="cls-59" d="M115,382a1.09,1.09,0,0,0-1,.83H95.18a1.1,1.1,0,1,0-1.06,1.39,1.09,1.09,0,0,0,1.06-.83h18.73a1.08,1.08,0,0,0,1,.83,1.11,1.11,0,0,0,0-2.22Z"/><path class="cls-59" d="M104.41,436.9a1.09,1.09,0,0,0-1,.83H84.63a1.1,1.1,0,1,0-1.06,1.39,1.09,1.09,0,0,0,1.06-.83h18.73a1.08,1.08,0,0,0,1,.83,1.11,1.11,0,0,0,0-2.22Z"/><path class="cls-59" d="M112.72,525.21a1.09,1.09,0,0,0-1.06.83H92.94a1.1,1.1,0,0,0-1.06-.83,1.11,1.11,0,1,0,1.06,1.39h18.72a1.1,1.1,0,1,0,1.06-1.39Z"/><text class="cls-60" transform="translate(153.14 274.66)"><tspan class="cls-61">R</tspan><tspan x="4.7" y="0">e</tspan><tspan class="cls-62" x="9.04" y="0">g</tspan><tspan x="13.84" y="0">ión </tspan><tspan class="cls-63" x="-12.14" y="10.4">M</tspan><tspan x="-5.12" y="10.4">et</tspan><tspan class="cls-64" x="2.1" y="10.4">r</tspan><tspan x="4.85" y="10.4">opolitana</tspan></text></svg>